<svg width="1959" height="948" viewBox="0 0 1959 948" fill="none" xmlns="http://www.w3.org/2000/svg">
<g clip-path="url(#clip0_42_851)">
<path d="M2026.03 559.357C2031.14 513.651 2022.74 291.31 1874.84 247.583C1757.72 212.957 1642 270.336 1522.21 264.108C1402.41 257.88 1145 39.5178 1111.32 -134" stroke="#282626" stroke-width="7.78561"/>
<g filter="url(#filter0_d_42_851)">
<rect x="1712" y="199.787" width="78" height="78" rx="29" fill="#282626"/>
</g>
<g filter="url(#filter1_d_42_851)">
<rect x="1834.37" y="231.785" width="61" height="65" rx="15" transform="rotate(165 1834.37 231.785)" fill="#282626"/>
</g>
<g clip-path="url(#clip1_42_851)">
<path d="M1781.44 193.176L1777.42 206.547L1799.41 229.914L1814.89 226.169L1818.92 212.799L1803.44 216.491L1781.44 193.176Z" fill="#E0E0E2"/>
<path d="M1800.71 216.143L1782.91 197.231L1779.45 208.71L1797.25 227.637L1800.71 216.143Z" fill="#C6C5CB"/>
<path d="M1780.49 208.371L1783.61 197.975L1787.72 202.342L1784.6 212.723L1780.49 208.371Z" fill="#59A4FF"/>
<path d="M1796.92 225.828L1800.04 215.439L1795.94 211.075L1792.82 221.434L1796.92 225.828Z" fill="#59A4FF"/>
<path d="M1785.64 215.28L1789.09 203.798L1794.57 209.62L1791.11 221.11L1785.64 215.28Z" fill="#59A4FF"/>
<path d="M1788.29 218.1L1788.46 218.29L1791.92 206.804L1791.74 206.614L1788.29 218.1Z" fill="#1D81CD"/>
<path d="M1790.05 214.306C1790.01 214.295 1789.97 214.274 1789.95 214.244C1789.89 214.185 1789.87 214.102 1789.9 214.024L1790.47 212.11C1790.49 212.033 1790.56 211.974 1790.64 211.955L1791.1 211.845C1791.22 211.816 1791.35 211.892 1791.38 212.013C1791.4 212.135 1791.33 212.257 1791.21 212.285L1790.87 212.366L1790.44 213.779L1790.53 213.759C1790.65 213.73 1790.77 213.806 1790.8 213.927C1790.83 214.049 1790.75 214.17 1790.63 214.199L1790.16 214.309C1790.12 214.319 1790.08 214.317 1790.05 214.306Z" fill="#D8D8DA"/>
<path d="M1788.85 213.043C1788.82 213.032 1788.78 213.011 1788.75 212.981C1788.7 212.922 1788.68 212.839 1788.7 212.761L1789.28 210.847C1789.3 210.77 1789.36 210.711 1789.44 210.692L1789.91 210.582C1790.03 210.554 1790.15 210.629 1790.18 210.75C1790.21 210.872 1790.13 210.994 1790.01 211.022L1789.67 211.103L1789.25 212.516L1789.33 212.496C1789.46 212.467 1789.58 212.543 1789.61 212.664C1789.63 212.786 1789.56 212.907 1789.44 212.936L1788.97 213.046C1788.93 213.056 1788.89 213.054 1788.85 213.043Z" fill="#D8D8DA"/>
<path d="M1803.44 216.491L1818.92 212.799L1814.89 226.169L1799.41 229.914L1803.44 216.491Z" fill="#C6C5CB"/>
<path d="M1798.74 183.743L1820.65 207.032L1820.87 212.315L1801.42 216.897L1779.51 193.609L1783.18 187.409L1798.74 183.743Z" fill="#4DBA69"/>
<path d="M1801.42 216.897L1805.09 210.698L1820.65 207.032L1820.87 212.315L1801.42 216.897Z" fill="#378B4F"/>
<path d="M1783.18 187.409L1805.09 210.698L1801.42 216.897L1779.51 193.609L1783.18 187.409Z" fill="#40A559"/>
<path d="M1786.49 188.407L1798.16 185.657L1817.34 206.034L1805.67 208.784L1786.49 188.407Z" fill="#2B743F"/>
<path d="M1802.3 200.635L1808.21 199.243L1812.37 203.663L1811.71 205.872L1805.8 207.264L1801.64 202.844L1802.3 200.635Z" fill="#E0E0E2"/>
<path d="M1806.25 200.991C1805.39 201.192 1805.19 201.877 1805.79 202.513C1806.39 203.15 1807.57 203.507 1808.43 203.307C1809.28 203.107 1809.49 202.422 1808.89 201.785C1808.29 201.147 1807.1 200.79 1806.25 200.991Z" fill="#C6C5CB"/>
<path d="M1802.3 200.635L1801.64 202.844L1805.8 207.264L1806.46 205.055L1802.3 200.635Z" fill="#C6C5CB"/>
<path d="M1805.8 207.264L1811.71 205.872L1812.37 203.663L1806.46 205.055L1805.8 207.264Z" fill="#ACABB1"/>
<path d="M1798.89 192.894L1799.23 191.76C1799.34 191.386 1799.21 190.937 1798.8 190.504C1797.99 189.639 1796.38 189.154 1795.22 189.426C1794.64 189.563 1794.28 189.864 1794.17 190.238L1793.83 191.371C1793.72 191.746 1793.85 192.195 1794.26 192.627C1795.07 193.491 1796.68 193.976 1797.84 193.705C1798.42 193.569 1798.78 193.268 1798.89 192.894Z" fill="#C6C5CB"/>
<path d="M1795.22 189.426C1794.07 189.699 1793.78 190.629 1794.6 191.493C1795.41 192.357 1797.02 192.842 1798.18 192.571C1799.34 192.299 1799.62 191.369 1798.8 190.504C1797.99 189.639 1796.38 189.154 1795.22 189.426Z" fill="#E0E0E2"/>
<path d="M1803.07 197.336L1803.41 196.203C1803.53 195.828 1803.39 195.379 1802.99 194.946C1802.17 194.081 1800.56 193.596 1799.4 193.869C1798.82 194.005 1798.47 194.306 1798.35 194.68L1798.01 195.813L1798.01 195.813C1797.9 196.188 1798.03 196.637 1798.44 197.069C1799.25 197.933 1800.86 198.418 1802.02 198.147C1802.6 198.011 1802.96 197.71 1803.07 197.336Z" fill="#C6C5CB"/>
<path d="M1799.4 193.868C1798.25 194.141 1797.97 195.071 1798.78 195.935C1799.59 196.799 1801.2 197.284 1802.36 197.013C1803.52 196.741 1803.8 195.811 1802.99 194.946C1802.17 194.081 1800.56 193.596 1799.4 193.868Z" fill="#E0E0E2"/>
<path d="M1787.86 189.862C1787.91 189.869 1797.59 187.571 1797.59 187.571L1798.16 185.657L1786.49 188.407L1787.86 189.862Z" fill="#378B4F"/>
<path d="M1797.59 187.571L1815.39 206.493L1817.34 206.034L1798.16 185.657L1797.59 187.571Z" fill="#40A559"/>
<path d="M1806.68 217.436L1805.53 221.264L1809.4 220.351L1810.55 216.523L1806.68 217.436Z" fill="#2487FF"/>
<path d="M1812.52 216.061L1811.36 219.888L1815.24 218.975L1816.39 215.148L1812.52 216.061Z" fill="#2487FF"/>
<path d="M1788.17 188.831L1785.87 196.469L1798.2 209.569L1799.28 209.32L1801.59 201.665L1789.28 188.592L1788.17 188.831Z" fill="#E0E0E2"/>
<path d="M1798.2 209.569L1799.28 209.32L1801.59 201.665L1800.5 201.914L1798.2 209.569Z" fill="#C6C5CB"/>
<path d="M1788.17 188.831L1789.28 188.592L1801.59 201.665L1800.5 201.914L1788.17 188.831Z" fill="white"/>
<path d="M1784.82 214.417L1785 214.607L1788.45 203.123L1788.27 202.933L1784.82 214.417Z" fill="#ACABB1"/>
<path d="M1791.71 221.74L1791.88 221.93L1795.34 210.441L1795.16 210.251L1791.71 221.74Z" fill="#ACABB1"/>
<path d="M1791.15 194.357L1790.87 197.911L1794.44 201.705L1794.25 202.058L1790.74 198.328L1790.61 198.745L1794.06 202.412L1794.36 202.73L1796.31 199.014L1797.04 199.789L1797.17 199.371L1796.27 198.415L1795.77 199.258L1791.15 194.357Z" fill="#40A559"/>
<path d="M1793.78 203.35C1793.87 203.062 1793.77 202.65 1793.56 202.43C1793.35 202.209 1793.11 202.264 1793.03 202.552C1792.94 202.839 1793.04 203.251 1793.24 203.471C1793.45 203.692 1793.69 203.637 1793.78 203.35Z" fill="#40A559"/>
<path d="M1791.38 200.799C1791.47 200.511 1791.37 200.099 1791.16 199.879C1790.95 199.659 1790.72 199.714 1790.63 200.002C1790.54 200.289 1790.64 200.701 1790.84 200.921L1790.84 200.921C1791.05 201.141 1791.29 201.086 1791.38 200.799Z" fill="#40A559"/>
</g>
<path fill-rule="evenodd" clip-rule="evenodd" d="M1775.2 261.516C1775.2 252.744 1768.2 245.633 1759.56 245.633C1754.43 245.633 1748.73 245.633 1743.6 245.633C1734.96 245.633 1727.96 252.744 1727.96 261.516V263.872H1775.2V261.516Z" fill="#F43131"/>
<path fill-rule="evenodd" clip-rule="evenodd" d="M1775.21 261.145H1727.97C1727.97 261.271 1727.97 261.392 1727.97 261.518V263.873H1775.21V261.518C1775.21 261.392 1775.21 261.271 1775.21 261.145Z" fill="#B72525"/>
<path fill-rule="evenodd" clip-rule="evenodd" d="M1728.01 263.873C1728.62 255.672 1735.37 249.211 1743.61 249.211H1759.57C1767.8 249.211 1774.55 255.672 1775.16 263.873H1775.21V261.518C1775.21 252.745 1768.2 245.638 1759.57 245.638H1743.61C1734.97 245.638 1727.97 252.745 1727.97 261.518V263.873H1728.01Z" fill="#F76565"/>
<path fill-rule="evenodd" clip-rule="evenodd" d="M1755.19 236.571H1748.29V245.633C1750.75 247.985 1753.05 247.985 1755.19 245.633V236.571Z" fill="#B99C54"/>
<path fill-rule="evenodd" clip-rule="evenodd" d="M1748.3 242.251V245.638C1750.76 247.988 1753.05 247.988 1755.2 245.638V242.251C1753.05 244.601 1750.76 244.601 1748.3 242.251Z" fill="#F7D070"/>
<path d="M1751.75 241.566C1756.74 241.566 1760.78 237.003 1760.78 231.375C1760.78 225.746 1756.74 221.184 1751.75 221.184C1746.77 221.184 1742.72 225.746 1742.72 231.375C1742.72 237.003 1746.77 241.566 1751.75 241.566Z" fill="#F7D070"/>
<path fill-rule="evenodd" clip-rule="evenodd" d="M1738.9 246.627V257.819C1738.9 259.269 1738.45 260.683 1737.62 261.861C1736.92 262.849 1736.2 263.872 1736.2 263.872H1766.47C1766.47 263.872 1765.75 262.849 1765.05 261.861C1764.22 260.683 1763.77 259.269 1763.77 257.819C1763.77 253.961 1763.77 246.446 1763.77 246.446C1762.16 245.909 1760.46 245.633 1758.73 245.633C1758.73 245.633 1758.04 251.301 1757.69 254.094C1757.58 254.962 1756.86 255.613 1756 255.613C1753.76 255.613 1749.61 255.613 1747.39 255.613C1746.55 255.613 1745.83 254.987 1745.71 254.139C1745.29 251.362 1744.44 245.633 1744.44 245.633C1742.53 245.633 1740.66 245.969 1738.9 246.627Z" fill="#0D79F2"/>
<path fill-rule="evenodd" clip-rule="evenodd" d="M1744.98 249.25L1744.44 245.638C1742.53 245.638 1740.66 245.971 1738.9 246.631V250.247C1740.66 249.588 1742.53 249.25 1744.44 249.25H1744.98Z" fill="#4A9BF5"/>
<path fill-rule="evenodd" clip-rule="evenodd" d="M1760.02 245.685L1758.74 245.638L1758.29 249.25H1758.74C1760.46 249.25 1762.16 249.527 1763.77 250.065V246.448C1762.56 246.045 1761.3 245.789 1760.02 245.685Z" fill="#4A9BF5"/>
<path fill-rule="evenodd" clip-rule="evenodd" d="M1764.61 261.154H1738.06C1737.93 261.397 1737.78 261.635 1737.62 261.865C1736.92 262.849 1736.2 263.873 1736.2 263.873H1766.47C1766.47 263.873 1765.75 262.849 1765.05 261.865C1764.89 261.635 1764.74 261.397 1764.61 261.154Z" fill="#0A5BB5"/>
<path fill-rule="evenodd" clip-rule="evenodd" d="M1751.74 227.188C1752.63 225.8 1754.18 224.879 1755.94 224.879C1758.69 224.879 1760.93 227.123 1760.93 229.887C1760.93 232.652 1758.69 234.896 1755.94 234.896C1754.95 234.896 1754.02 234.603 1753.24 234.098C1752.33 233.497 1751.15 233.497 1750.24 234.098C1749.46 234.603 1748.53 234.896 1747.53 234.896C1744.78 234.896 1742.54 232.652 1742.54 229.887C1742.54 227.123 1744.78 224.879 1747.53 224.879C1749.3 224.879 1750.85 225.8 1751.74 227.188Z" fill="#9E9E9E"/>
<path fill-rule="evenodd" clip-rule="evenodd" d="M1751.74 225.806C1750.68 224.7 1749.18 224.012 1747.53 224.012C1744.31 224.012 1741.69 226.647 1741.69 229.887C1741.69 233.128 1744.31 235.763 1747.53 235.763C1748.7 235.763 1749.79 235.42 1750.7 234.829C1750.7 234.828 1750.7 234.827 1750.71 234.826C1751.33 234.411 1752.14 234.411 1752.77 234.826C1752.78 234.827 1752.78 234.828 1752.78 234.829C1753.69 235.419 1754.78 235.763 1755.94 235.763C1759.17 235.763 1761.79 233.128 1761.79 229.887C1761.79 226.647 1759.17 224.012 1755.94 224.012C1754.29 224.012 1752.8 224.7 1751.74 225.806ZM1751.02 227.66C1751.18 227.907 1751.45 228.055 1751.74 228.055C1752.03 228.055 1752.3 227.907 1752.45 227.66C1753.19 226.509 1754.48 225.746 1755.94 225.746C1758.22 225.746 1760.08 227.599 1760.08 229.887C1760.08 232.175 1758.22 234.028 1755.94 234.028C1755.12 234.028 1754.35 233.786 1753.7 233.367C1752.51 232.584 1750.97 232.584 1749.78 233.368C1749.13 233.786 1748.36 234.028 1747.53 234.028C1745.26 234.028 1743.4 232.175 1743.4 229.887C1743.4 227.599 1745.26 225.746 1747.53 225.746C1749 225.746 1750.29 226.509 1751.02 227.66Z" fill="#333333"/>
<path fill-rule="evenodd" clip-rule="evenodd" d="M1740.04 227.49C1739.69 226.906 1742.1 225.374 1741.86 224.724C1741.44 223.575 1741.22 223.247 1741.22 221.953C1741.22 216.058 1745.93 211.272 1751.74 211.272C1757.55 211.272 1762.26 216.058 1762.26 221.953C1762.26 223.247 1762.03 223.575 1761.62 224.724C1761.38 225.374 1763.79 226.906 1763.43 227.49H1740.04Z" fill="#F4BB31"/>
<path fill-rule="evenodd" clip-rule="evenodd" d="M1741.42 223.482C1741.29 223.065 1741.23 222.649 1741.23 221.955C1741.23 216.058 1745.94 211.274 1751.75 211.274C1757.55 211.274 1762.27 216.058 1762.27 221.955C1762.27 222.649 1762.2 223.065 1762.08 223.482C1761.14 218.56 1756.87 214.839 1751.75 214.839C1746.63 214.839 1742.35 218.56 1741.42 223.482Z" fill="#F7CC65"/>
<path fill-rule="evenodd" clip-rule="evenodd" d="M1746.86 212.497C1749.44 214.566 1751.14 218.036 1751.14 221.971C1751.14 222.45 1750.75 222.839 1750.28 222.839C1749.81 222.839 1749.43 222.45 1749.43 221.971C1749.43 218.547 1747.95 215.521 1745.69 213.756C1745.57 213.665 1745.49 213.549 1745.44 213.416C1745.89 213.072 1746.36 212.764 1746.86 212.497Z" fill="#B78C25"/>
<path fill-rule="evenodd" clip-rule="evenodd" d="M1756.63 212.497C1757.13 212.763 1757.6 213.068 1758.05 213.416C1758 213.549 1757.92 213.665 1757.8 213.756C1755.54 215.521 1754.06 218.547 1754.06 221.971C1754.06 222.45 1753.68 222.839 1753.21 222.839C1752.74 222.839 1752.35 222.45 1752.35 221.971C1752.35 218.036 1754.05 214.566 1756.63 212.497Z" fill="#B78C25"/>
<path fill-rule="evenodd" clip-rule="evenodd" d="M1741.56 223.903L1741.9 223.836H1746.35C1746.83 223.836 1747.21 224.224 1747.21 224.703C1747.21 225.182 1746.83 225.57 1746.35 225.57H1741.9C1741.76 225.57 1741.63 225.537 1741.51 225.469C1741.77 225.18 1741.93 224.914 1741.86 224.724L1741.56 223.903Z" fill="#B78C25"/>
<path d="M1002 1366.59C1043.37 1386.67 1255.75 1453.04 1346.37 1328.24C1418.14 1229.42 1402.71 1101.18 1448.6 990.352C1494.49 879.52 1786.31 709.848 1961.11 736.067" stroke="#282626" stroke-width="7.78561"/>
<g filter="url(#filter2_d_42_851)">
<rect width="62.6998" height="62.7724" rx="21" transform="matrix(-0.984346 0.176248 -0.176854 -0.984237 1710.41 827.416)" fill="#282626"/>
</g>
<g clip-path="url(#clip2_42_851)">
<path d="M1693.13 801.86L1656 808.509L1655.78 807.23C1654.96 802.306 1656.09 797.345 1658.96 793.263C1661.83 789.176 1666.12 786.441 1671.04 785.561C1675.95 784.681 1680.93 785.757 1685.05 788.592C1689.16 791.424 1691.94 795.684 1692.88 800.587L1693.13 801.86Z" fill="#DFCCBE"/>
<path d="M1691.21 804.708L1692.85 813.871L1682.01 815.812L1681.45 812.675C1681.38 812.281 1681.2 811.797 1680.43 811.533C1679.92 811.357 1679.42 811.375 1679.41 811.376L1679.36 811.378L1675.69 811.464L1664.76 811.718L1658.51 809.881L1657.74 805.594L1685.3 800.659L1691.21 804.708Z" fill="#FFDBA8"/>
<path d="M1691.21 804.708L1692.85 813.871L1682.01 815.812L1681.45 812.675C1681.38 812.281 1681.2 811.797 1680.43 811.533C1679.92 811.357 1679.42 811.375 1679.41 811.376L1679.36 811.378L1675.69 811.464L1674.11 802.663L1685.3 800.659L1691.21 804.708Z" fill="#FFC172"/>
<path d="M1693.13 801.86L1674.56 805.184L1671.04 785.561C1675.95 784.681 1680.93 785.757 1685.05 788.592C1689.16 791.424 1691.94 795.684 1692.88 800.587L1693.13 801.86Z" fill="#C9AD91"/>
<path d="M1694.32 810.958L1680.06 813.512L1681.57 821.951L1695.83 819.398L1694.32 810.958Z" fill="#A7AFF3"/>
<path d="M1694.31 810.958L1687.19 812.235L1688.7 820.674L1695.83 819.398L1694.31 810.958Z" fill="#7885EB"/>
<path d="M1684.97 816.235L1683.29 816.536L1683.6 818.217L1685.27 817.916L1684.97 816.235Z" fill="white"/>
<path d="M1694.68 798.979L1653.54 806.346L1653.99 808.868L1695.14 801.501L1694.68 798.979Z" fill="#867B6E"/>
<path d="M1673.19 783.47C1673.43 784.824 1672.53 786.119 1671.18 786.361C1669.83 786.603 1668.53 785.701 1668.29 784.347C1668.05 782.992 1668.95 781.698 1670.3 781.456C1671.65 781.213 1672.95 782.115 1673.19 783.47Z" fill="#867B6E"/>
<path d="M1671.18 786.361L1670.3 781.456C1671.65 781.213 1672.95 782.115 1673.19 783.47C1673.43 784.824 1672.53 786.119 1671.18 786.361Z" fill="#766957"/>
<path d="M1694.68 798.979L1674.11 802.663L1674.56 805.184L1695.14 801.501L1694.68 798.979Z" fill="#766957"/>
</g>
<path d="M71.5 -50C46.9642 -11.1023 -42.5 192.619 71.5 296.5C161.775 378.761 290.928 377.624 396 435.5C501.072 493.376 637.404 802.174 592 973.001" stroke="#282626" stroke-width="7.78561"/>
<g filter="url(#filter3_d_42_851)">
<rect x="45" y="287.619" width="93" height="93" rx="29" transform="rotate(-10.2942 45 287.619)" fill="#282626"/>
</g>
<g clip-path="url(#clip3_42_851)">
<path d="M109.709 309.735L78.3094 315.438L84.6136 350.148C84.785 351.092 85.6889 351.718 86.6324 351.546L114.615 346.464C115.559 346.293 116.185 345.389 116.013 344.445L109.709 309.735L109.709 309.735Z" fill="#F8E4C5"/>
<path d="M115.032 339.043L83.6324 344.746L84.6136 350.148C84.785 351.092 85.6889 351.718 86.6324 351.546L114.615 346.464C115.559 346.293 116.185 345.389 116.013 344.445L115.032 339.043L115.032 339.043Z" fill="#FF496A"/>
<g opacity="0.1">
<path d="M100.332 341.713L98.3325 342.076L99.624 349.187L101.623 348.824L100.332 341.713Z" fill="black"/>
<path d="M91.571 343.304L89.5717 343.667L90.8632 350.778L92.8625 350.415L91.571 343.304Z" fill="black"/>
<path d="M109.092 340.122L107.093 340.485L108.385 347.596L110.384 347.232L109.092 340.122Z" fill="black"/>
</g>
<path opacity="0.1" d="M78.3094 315.438L80.2188 325.951C81.0087 325.98 81.8133 325.928 82.6231 325.781C85.1355 325.324 87.2939 324.055 88.8812 322.295C90.9862 323.384 93.4532 323.814 95.9656 323.357C98.4781 322.901 100.636 321.631 102.224 319.871C104.329 320.961 106.796 321.39 109.308 320.934C110.118 320.787 110.89 320.553 111.619 320.248L109.709 309.735L78.3094 315.438Z" fill="black"/>
<path opacity="0.1" d="M111.516 319.68L110.464 313.892L101.797 326.407C100.479 328.309 100.953 330.919 102.855 332.236C103.589 332.744 103.772 333.752 103.264 334.485L92.1403 350.546L100.883 348.958L108.429 338.063C108.937 337.329 109.945 337.146 110.678 337.654C111.95 338.535 113.537 338.614 114.843 338.002L112.2 323.447L111.851 323.951C111.425 324.566 110.582 324.719 109.967 324.294C109.352 323.868 109.199 323.025 109.625 322.41L111.516 319.68Z" fill="black"/>
<path d="M104.616 295.102C102.104 295.559 99.9456 296.828 98.3582 298.588C96.2531 297.499 93.7862 297.069 91.2737 297.526C88.7612 297.982 86.6028 299.252 85.0155 301.012C82.9106 299.922 80.4436 299.493 77.9312 299.949C71.8938 301.046 67.8885 306.829 68.985 312.866C70.0816 318.903 75.8647 322.908 81.9019 321.812C84.4144 321.356 86.5728 320.086 88.1601 318.326C90.2651 319.415 92.7321 319.845 95.2445 319.389C97.757 318.932 99.9154 317.663 101.503 315.902C103.608 316.992 106.075 317.422 108.587 316.965C114.625 315.869 118.63 310.085 117.533 304.048C116.437 298.011 110.654 294.006 104.616 295.102Z" fill="#F8E4C5"/>
<path d="M129.414 313.876L121.286 325.612C120.86 326.227 120.017 326.38 119.403 325.954C118.788 325.529 118.635 324.685 119.06 324.071L127.189 312.335C127.843 311.39 127.607 310.095 126.663 309.441C125.719 308.787 124.423 309.022 123.769 309.966L115.641 321.702C115.215 322.317 114.372 322.47 113.757 322.045C113.142 321.619 112.989 320.776 113.415 320.161L121.543 308.425C122.197 307.48 121.962 306.185 121.018 305.531C120.073 304.877 118.778 305.112 118.124 306.056L105.586 324.158C104.269 326.06 104.743 328.67 106.645 329.987C107.379 330.495 107.562 331.502 107.053 332.236L90.4382 356.227C89.4503 357.653 89.8058 359.61 91.2322 360.598C92.6585 361.586 94.6157 361.23 95.6036 359.804L112.219 335.814C112.727 335.08 113.734 334.897 114.468 335.405C116.37 336.723 118.98 336.249 120.297 334.347L132.834 316.245C133.488 315.3 133.253 314.005 132.308 313.35C131.364 312.696 130.069 312.932 129.414 313.876Z" fill="#B7B9BC"/>
<path opacity="0.2" d="M121.356 328.885C119.168 329.283 117.717 331.378 118.114 333.566C118.251 334.32 118.59 334.986 119.065 335.52C119.538 335.226 119.96 334.833 120.297 334.347L123.842 329.229C123.097 328.865 122.234 328.726 121.356 328.885Z" fill="white"/>
<path opacity="0.2" d="M118.795 305.441C118.72 305.766 118.708 306.111 118.772 306.46C119.007 307.754 120.184 308.638 121.467 308.534L121.543 308.425C122.197 307.48 121.962 306.185 121.018 305.531C120.335 305.058 119.469 305.052 118.795 305.441ZM132.309 313.351C131.838 313.025 131.28 312.92 130.758 313.013C130.38 313.549 130.209 314.231 130.335 314.927C130.527 315.982 131.346 316.765 132.338 316.961L132.834 316.245C133.488 315.3 133.253 314.005 132.309 313.351ZM125.182 309.094C124.799 309.632 124.625 310.316 124.753 311.016C124.941 312.052 125.733 312.826 126.701 313.039L127.189 312.335C127.843 311.39 127.607 310.095 126.663 309.441C126.213 309.129 125.684 309.021 125.182 309.094Z" fill="white"/>
<path d="M132.887 312.515C131.484 311.544 129.551 311.895 128.579 313.298L120.451 325.034C120.345 325.187 120.134 325.226 119.981 325.12C119.881 325.05 119.85 324.954 119.841 324.902C119.832 324.851 119.826 324.749 119.896 324.65L128.024 312.913C128.996 311.51 128.645 309.577 127.242 308.605C126.562 308.135 125.739 307.957 124.926 308.104C124.112 308.252 123.405 308.708 122.934 309.388L114.806 321.124C114.736 321.224 114.64 321.255 114.588 321.264C114.537 321.273 114.436 321.279 114.336 321.209C114.236 321.14 114.205 321.043 114.196 320.992C114.186 320.941 114.181 320.839 114.25 320.739L122.379 309.003C123.351 307.6 123 305.667 121.596 304.695C120.69 304.067 119.563 303.995 118.616 304.398C118.592 304.221 118.565 304.043 118.533 303.867C117.338 297.288 111.014 292.908 104.435 294.103C102.028 294.54 99.8648 295.659 98.1342 297.355C95.9177 296.376 93.499 296.089 91.0923 296.526C88.6855 296.963 86.5223 298.082 84.7916 299.778C82.5751 298.799 80.1564 298.512 77.7496 298.949C71.1706 300.144 66.7905 306.469 67.9854 313.048C68.9687 318.461 73.4256 322.385 78.6393 322.94L83.614 350.33C83.8852 351.823 85.3207 352.817 86.814 352.546L92.4619 351.52L89.6029 355.648C88.2979 357.533 88.7693 360.128 90.6538 361.433C91.596 362.086 92.7161 362.295 93.7636 362.104C94.8112 361.914 95.7863 361.325 96.439 360.383L104.032 349.419L114.797 347.464C116.29 347.192 117.284 345.757 117.013 344.264L115.701 337.039C116.376 337.193 117.082 337.21 117.783 337.083C119.151 336.834 120.341 336.068 121.132 334.925L133.669 316.823C134.641 315.42 134.29 313.487 132.887 312.515ZM80.0648 320.972C79.8966 320.975 79.7282 320.973 79.5597 320.967C74.9213 320.804 70.8471 317.434 69.9846 312.684C68.9899 307.208 72.6361 301.943 78.1127 300.949C80.326 300.547 82.5515 300.88 84.5485 301.914C84.9587 302.126 85.4606 302.035 85.7699 301.692C87.2758 300.022 89.2418 298.927 91.4552 298.525C93.6685 298.123 95.894 298.457 97.891 299.491C98.3011 299.703 98.803 299.612 99.1123 299.269C100.618 297.599 102.584 296.504 104.798 296.102C110.274 295.107 115.539 298.753 116.533 304.23C116.659 304.922 116.712 305.631 116.69 306.341L110.437 315.371C109.78 315.64 109.098 315.84 108.405 315.966C106.192 316.368 103.967 316.034 101.97 315.001C101.559 314.788 101.058 314.879 100.748 315.222C99.2422 316.892 97.2763 317.987 95.063 318.389C92.8496 318.791 90.6243 318.458 88.6271 317.424C88.217 317.211 87.7151 317.303 87.4058 317.646C85.8998 319.316 83.9338 320.411 81.7206 320.813C81.5433 320.845 81.3649 320.872 81.1854 320.895C81.1722 320.896 81.159 320.897 81.1457 320.899C80.9774 320.919 80.8084 320.936 80.6387 320.949C80.6331 320.949 80.6276 320.949 80.6219 320.949C80.4461 320.962 80.2699 320.97 80.0931 320.973C80.0837 320.973 80.0744 320.972 80.0648 320.972ZM86.4509 350.547C86.0599 350.618 85.6841 350.358 85.6131 349.967L80.7118 322.981C80.9353 322.966 81.1594 322.945 81.3841 322.917C81.3922 322.916 81.4003 322.916 81.4083 322.914C81.5063 322.902 81.6044 322.889 81.7023 322.874C81.7189 322.872 81.7357 322.87 81.7523 322.867C81.8626 322.85 81.9731 322.832 82.0835 322.812C84.4904 322.375 86.6535 321.255 88.3842 319.559C90.6008 320.538 93.0193 320.825 95.4262 320.388C97.833 319.951 99.9962 318.832 101.727 317.136C103.899 318.095 106.265 318.388 108.624 317.989L104.751 323.58C103.96 324.723 103.661 326.106 103.909 327.473C104.158 328.841 104.924 330.031 106.067 330.822C106.339 331.011 106.407 331.385 106.218 331.658L94.0982 349.158L86.4509 350.547ZM115.014 344.627C115.085 345.018 114.825 345.393 114.434 345.464L105.668 347.056L113.054 336.392C113.155 336.247 113.309 336.162 113.473 336.141L115.014 344.627ZM131.999 315.666L119.462 333.768C118.466 335.207 116.485 335.566 115.047 334.57C113.853 333.744 112.21 334.042 111.384 335.235L94.7685 359.226C94.1012 360.189 92.7743 360.43 91.8108 359.763C90.8472 359.096 90.6062 357.769 91.2736 356.805L107.889 332.815C108.715 331.622 108.417 329.978 107.224 329.152C105.785 328.156 105.426 326.175 106.422 324.737L118.959 306.635C119.126 306.394 119.376 306.243 119.643 306.195C119.911 306.146 120.198 306.199 120.439 306.366C120.921 306.7 121.042 307.364 120.708 307.846L112.58 319.583C112.219 320.103 112.083 320.733 112.196 321.355C112.309 321.978 112.658 322.52 113.178 322.88C113.699 323.24 114.328 323.377 114.951 323.263C115.574 323.15 116.116 322.801 116.476 322.281L124.604 310.545C124.766 310.311 125.009 310.154 125.289 310.104C125.568 310.053 125.851 310.114 126.084 310.276C126.567 310.61 126.687 311.274 126.353 311.756L118.225 323.493C117.865 324.013 117.728 324.643 117.842 325.265C117.955 325.888 118.304 326.43 118.824 326.79C119.898 327.534 121.377 327.265 122.121 326.191L130.249 314.455C130.584 313.972 131.248 313.852 131.73 314.186C132.212 314.52 132.333 315.184 131.999 315.666Z" fill="black"/>
<path opacity="0.2" d="M94.601 356.996C94.3452 357.042 94.0717 356.991 93.841 356.832C93.3798 356.512 93.2648 355.879 93.5842 355.418L98.2454 348.688C98.5649 348.226 99.1979 348.111 99.659 348.431C100.12 348.75 100.235 349.383 99.9158 349.845L95.2546 356.575C95.0951 356.805 94.8569 356.949 94.601 356.996Z" fill="black"/>
</g>
<g filter="url(#filter4_d_42_851)">
<rect x="581.633" y="777" width="69.3416" height="69.3416" rx="23" transform="rotate(25.2991 581.633 777)" fill="#282626"/>
</g>
<g clip-path="url(#clip4_42_851)">
<path d="M616.064 834.502L578.132 816.573C582.258 807.844 591.826 803.404 601.027 805.274C601.712 805.412 602.395 805.586 603.072 805.796L608.562 808.391C617.118 814.034 620.497 825.124 616.064 834.502Z" fill="#FF6F52"/>
<path d="M604.198 828.893L586.252 820.411C589.692 822.037 593.776 820.615 595.373 817.234L601.027 805.274C601.712 805.412 602.394 805.586 603.072 805.796L606.68 807.501C606.664 807.546 606.647 807.591 606.626 807.635L600.862 819.829C599.264 823.209 600.757 827.267 604.198 828.893Z" fill="#E25749"/>
<path d="M607.342 807.814L603.073 805.796C593.28 802.766 582.565 807.195 578.133 816.573L582.402 818.591C586.835 809.213 597.55 804.784 607.342 807.814Z" fill="#E25749"/>
<path d="M602.736 820.714L608.5 808.521C608.794 807.898 608.519 807.151 607.886 806.852L604.691 805.341C604.057 805.042 603.305 805.304 603.011 805.926L597.247 818.12C595.649 821.5 591.566 822.923 588.126 821.297L577.142 816.105L574.574 821.536L614.488 840.402L617.055 834.971L606.071 829.779C602.631 828.153 601.138 824.095 602.736 820.714Z" fill="#FF6F52"/>
<path d="M584.199 819.441L577.141 816.105L574.574 821.536L581.632 824.872L584.199 819.441Z" fill="#E25749"/>
<path d="M606.251 836.509C605.327 838.233 600.675 840.357 600.675 840.357C595.053 838.35 589.621 835.848 584.444 832.88C583.871 832.551 583.302 832.217 582.736 831.877C582.736 831.877 581.423 826.934 582.17 825.127L606.251 836.509Z" fill="#FF6F52"/>
<path d="M584.444 832.88C583.872 832.551 583.302 832.217 582.736 831.877C582.736 831.877 581.423 826.934 582.17 825.127L586.286 827.072C584.624 828.678 584.444 832.88 584.444 832.88Z" fill="#E25749"/>
<path d="M617.333 834.257L617.031 834.115C618.962 829.612 619.268 824.567 617.879 819.819C616.478 815.029 613.455 810.852 609.341 808.005C609.349 807.237 608.912 806.492 608.163 806.138L604.968 804.628C604.219 804.274 603.365 804.41 602.777 804.903C601.475 804.532 600.139 804.281 598.796 804.155C598.37 804.116 597.996 804.425 597.962 804.846C597.935 805.175 598.122 805.474 598.408 805.609C598.489 805.647 598.577 805.673 598.672 805.681C599.77 805.783 600.864 805.978 601.935 806.258L596.496 817.765C595.081 820.759 591.45 822.023 588.404 820.583L579.127 816.199C582.328 810.062 588.579 806.034 595.625 805.628C596.052 805.603 596.373 805.241 596.342 804.818C596.311 804.395 595.941 804.073 595.514 804.098C587.907 804.537 581.158 808.895 577.72 815.533L577.419 815.391C577.031 815.208 576.57 815.368 576.39 815.75L573.823 821.181C573.642 821.562 573.811 822.02 574.199 822.204L581.209 825.517C580.828 827.74 581.811 831.564 581.937 832.04C581.989 832.235 582.116 832.403 582.291 832.508C585.15 834.223 588.1 835.8 591.121 837.227C594.141 838.655 597.232 839.934 600.372 841.055C600.564 841.123 600.775 841.115 600.958 841.031C601.406 840.826 604.985 839.158 606.461 837.453L614.113 841.07C614.501 841.253 614.961 841.093 615.142 840.712L617.709 835.28C617.889 834.899 617.721 834.441 617.333 834.257ZM614.063 839.357L604.567 834.868C604.179 834.685 603.718 834.845 603.538 835.227C603.358 835.608 603.526 836.066 603.914 836.249L604.99 836.758C603.983 837.711 601.979 838.839 600.578 839.505C594.604 837.351 588.814 834.614 583.358 831.366C582.983 829.861 582.582 827.596 582.68 826.212L601.373 835.048C601.761 835.232 602.222 835.071 602.402 834.69C602.582 834.308 602.414 833.85 602.026 833.667L575.555 821.155L577.469 817.104L587.751 821.964C591.572 823.771 596.126 822.185 597.901 818.429L603.665 806.236C603.779 805.995 604.07 805.893 604.315 806.009L607.51 807.519C607.755 807.635 607.862 807.925 607.748 808.166L605.925 812.022C605.745 812.403 605.913 812.861 606.301 813.045C606.69 813.228 607.15 813.068 607.331 812.686L608.829 809.516C612.462 812.149 615.132 815.921 616.391 820.227C617.675 824.617 617.399 829.282 615.625 833.45L606.349 829.065C603.302 827.625 601.975 824.018 603.39 821.023L606.15 815.184C606.33 814.802 606.162 814.344 605.774 814.161C605.386 813.977 604.925 814.138 604.745 814.519L601.985 820.359C600.209 824.115 601.874 828.64 605.696 830.447L615.977 835.306L614.063 839.357L614.063 839.357Z" fill="black"/>
<path d="M614.323 828.826C614.712 829.009 615.172 828.849 615.353 828.468C615.533 828.086 615.364 827.628 614.976 827.445C614.588 827.261 614.128 827.422 613.947 827.803C613.767 828.185 613.935 828.643 614.323 828.826Z" fill="black"/>
<path d="M613.173 831.26C613.561 831.443 614.022 831.283 614.202 830.901C614.382 830.52 614.214 830.062 613.826 829.879C613.438 829.695 612.977 829.856 612.797 830.237C612.617 830.618 612.785 831.076 613.173 831.26Z" fill="black"/>
<path d="M583.525 814.268C583.913 814.452 584.374 814.291 584.554 813.91C584.735 813.529 584.566 813.071 584.178 812.887C583.79 812.704 583.329 812.864 583.149 813.246C582.969 813.627 583.137 814.085 583.525 814.268Z" fill="black"/>
<path d="M582.375 816.702C582.763 816.886 583.224 816.725 583.404 816.344C583.584 815.962 583.416 815.504 583.028 815.321C582.64 815.138 582.179 815.298 581.999 815.679C581.818 816.061 581.987 816.519 582.375 816.702Z" fill="black"/>
</g>
<g filter="url(#filter5_d_42_851)">
<path d="M1807.4 703.933C1808.4 687.948 1822.16 675.796 1838.15 676.792L1880.07 679.402C1896.05 680.397 1908.2 694.163 1907.21 710.148L1904.6 752.067C1903.6 768.052 1889.84 780.204 1873.85 779.209L1831.93 776.598C1815.95 775.603 1803.8 761.837 1804.79 745.852L1807.4 703.933Z" fill="#282626"/>
</g>
<g clip-path="url(#clip5_42_851)">
<g clip-path="url(#clip6_42_851)">
<path d="M1851.66 716.981C1851.66 716.981 1851.45 716.197 1850.9 715.896C1850.36 715.595 1849.42 715.496 1849.42 715.496L1846.67 734.394L1847.36 743.848C1847.36 743.848 1847.67 744.98 1848.64 745.081C1849.61 745.181 1857.69 745.644 1858.4 745.689C1859.11 745.733 1859.4 744.789 1859.46 744.369C1859.53 743.95 1859.56 743.241 1859.56 743.241L1863.01 743.441C1863.01 743.441 1863.11 744.959 1862.72 745.887C1862.38 746.692 1862.08 747.333 1862.07 747.615C1862.05 748.016 1862.54 748.45 1863.14 748.452C1863.74 748.45 1864.69 747.702 1865.32 747.243C1865.95 746.783 1875.53 747.496 1875.53 747.496C1875.53 747.496 1875.94 748.398 1876.42 748.957C1876.71 749.292 1877.2 749.479 1877.65 749.507C1878.1 749.535 1878.7 748.957 1878.61 748.529C1878.52 748.1 1878.07 747.1 1878.04 746.151C1878.03 745.722 1878.15 744.536 1878.37 744.353C1878.42 744.311 1879.17 744.382 1879.87 744.35C1881.06 744.299 1882.35 742.802 1882.57 741.586C1882.8 740.371 1882.93 736.495 1882.93 736.495L1851.66 716.981Z" fill="#B3AFAF"/>
<path d="M1847.41 738.067L1882.72 740.265C1882.72 740.265 1882.74 741.284 1882.53 741.926C1882.41 742.267 1882.24 742.582 1882.01 742.856L1847.45 740.699L1847.41 738.067Z" fill="#9A9A9A"/>
<path d="M1835.12 735.654L1827.5 737.558L1823.85 736.005C1823.85 736.005 1824.43 728.817 1824.52 728.092C1824.61 727.367 1824.82 726.741 1825.52 726.326C1826.22 725.911 1828.16 724.888 1828.16 724.888C1828.16 724.888 1834.48 715.815 1835.02 715.163C1835.55 714.511 1836.2 713.716 1837.64 713.669C1839.07 713.623 1847.87 714.281 1848.67 714.376C1849.46 714.471 1850.04 714.88 1849.93 716.656C1849.82 718.433 1848.93 731.99 1848.84 732.67C1848.75 733.349 1845.26 735.646 1845.26 735.646L1835.12 735.654Z" fill="#E0E0E0"/>
<path d="M1845.47 744.959C1845.47 744.959 1846.18 745.023 1846.68 744.984C1847.18 744.945 1847.96 744.484 1848.07 743.287C1848.13 742.575 1848.84 732.67 1848.84 732.67L1835.51 731.87L1830.89 736.434L1823.85 736.005C1823.85 736.005 1823.64 738.839 1823.61 739.598C1823.58 740.362 1827.31 742.262 1827.31 742.262L1845.47 744.959Z" fill="#DC0D28"/>
<path d="M1823.61 739.598L1831.64 740.098C1831.64 740.098 1833.58 736.692 1838.52 737.06C1845.78 737.603 1845.47 744.954 1845.47 744.954L1826.55 743.776C1825.49 743.71 1823.99 743.254 1823.69 741.854C1823.43 740.68 1823.61 739.598 1823.61 739.598Z" fill="#B10A1B"/>
<path d="M1829.34 726.941C1829.34 726.941 1829.39 726.123 1828.86 726.06C1828.34 725.998 1827.74 726.298 1827.19 726.722C1826.61 727.169 1826.3 727.589 1826.17 727.963C1825.97 728.52 1826.08 729.035 1826.93 729.114C1827.98 729.214 1844.64 730.141 1845.42 730.124C1846.39 730.099 1846.99 729.713 1847.01 728.974C1847.03 728.265 1846.54 728.008 1844.48 727.854C1842.41 727.7 1829.34 726.941 1829.34 726.941Z" fill="white"/>
<path d="M1824.44 729.039C1824.44 729.039 1829.45 729.19 1829.55 729.322C1829.69 729.518 1829.57 731.938 1829.49 732.301C1829.42 732.664 1828.93 732.891 1828.35 732.88C1827.77 732.869 1824.13 732.702 1824.13 732.702L1824.44 729.039Z" fill="#FDEDC5"/>
<path d="M1845.25 727.05C1846.02 727.099 1846.35 726.212 1846.39 725.59L1846.88 717.716C1846.92 717.094 1846.56 716.733 1845.35 716.598C1844.14 716.467 1838.59 716.187 1837.98 716.169C1837.05 716.141 1836.38 716.523 1835.45 717.684C1834.85 718.438 1831.07 724.016 1830.77 724.476C1830.46 724.941 1830.05 726.19 1831.49 726.304C1832.97 726.427 1845.25 727.05 1845.25 727.05Z" fill="#5F6369"/>
<path d="M1832.29 724.913L1844.64 725.682C1844.89 725.698 1845.13 725.431 1845.15 725.089C1845.17 724.748 1845.52 719.42 1845.55 719.104C1845.64 718.233 1845.01 717.992 1844.46 717.988C1843.9 717.984 1838.33 717.617 1838 717.611C1837.36 717.602 1836.68 718.431 1836.08 719.255C1835.35 720.253 1832.29 724.913 1832.29 724.913Z" fill="#AFE3FB"/>
<path d="M1832.42 725.859C1832.4 727.132 1834.32 728.299 1834.81 728.36C1835.31 728.421 1835.67 727.451 1835.81 726.125C1835.95 724.798 1835.49 723.667 1835.08 723.641C1834.67 723.615 1832.44 724.782 1832.42 725.859Z" fill="#5F6369"/>
<path d="M1831.67 744.9C1831.55 747.412 1833.28 751.142 1837.52 751.431C1841.76 751.721 1844.18 748.526 1844.25 745.1C1844.33 741.618 1841.85 739 1838.06 738.875C1834.51 738.765 1831.83 741.429 1831.67 744.9Z" fill="#4E433D"/>
<path d="M1834.71 744.944C1834.65 746.265 1835.55 748.236 1837.79 748.39C1840.02 748.544 1841.2 746.955 1841.25 745.149C1841.29 743.313 1839.95 741.859 1838.07 741.773C1836.21 741.682 1834.8 743.111 1834.71 744.944Z" fill="#C8C8C8"/>
<path d="M1864.02 746.915C1863.9 749.427 1865.63 753.156 1869.87 753.446C1874.12 753.735 1876.53 750.54 1876.61 747.114C1876.69 743.633 1874.21 741.015 1870.41 740.889C1866.86 740.779 1864.18 743.444 1864.02 746.915Z" fill="#4E433D"/>
<path d="M1867.06 746.958C1867 748.28 1867.91 750.25 1870.14 750.405C1872.37 750.559 1873.56 748.97 1873.6 747.164C1873.64 745.328 1872.3 743.874 1870.43 743.787C1868.56 743.696 1867.15 745.125 1867.06 746.958Z" fill="#C8C8C8"/>
<path d="M1851.89 704.345C1851.98 703.03 1852.57 702.538 1853.6 702.658C1854.62 702.772 1882.85 704.373 1883.77 704.43C1884.69 704.488 1884.99 705.509 1884.95 706.086C1884.92 706.663 1882.92 735.93 1882.92 736.5C1882.92 737.069 1882.72 737.847 1881.74 737.892C1880.76 737.937 1851.83 736.08 1851.21 735.991C1850.6 735.903 1849.86 735.328 1849.91 734.59C1849.95 733.847 1851.85 705.028 1851.89 704.345Z" fill="#D16E1D"/>
<path d="M1854.39 705.659C1854.35 706.342 1852.55 731.898 1852.51 732.53C1852.47 733.163 1852.73 733.92 1853.56 733.971C1854.38 734.022 1879.66 735.647 1880.18 735.629C1880.69 735.61 1881.02 735.313 1881.12 734.473C1881.23 733.633 1882.82 707.964 1882.88 707.121C1882.93 706.278 1882.11 706.176 1881.24 706.122C1880.36 706.067 1855.64 704.579 1855.28 704.611C1854.92 704.634 1854.43 704.977 1854.39 705.659Z" fill="#F5B03A"/>
<path d="M1858.63 735.183C1859.17 725.922 1860.45 704.324 1860.59 703.743L1861.31 703.924L1862.03 704.06C1861.91 704.883 1860.81 723.173 1860.1 735.27L1858.63 735.183Z" fill="#D16E1D"/>
<path d="M1868.08 704.295L1869.55 704.386L1867.59 735.792L1866.12 735.7L1868.08 704.295Z" fill="#D16E1D"/>
<path d="M1875.5 704.782L1876.97 704.874L1875.02 736.124L1873.55 736.032L1875.5 704.782Z" fill="#D16E1D"/>
</g>
</g>
</g>
<defs>
<filter id="filter0_d_42_851" x="1706" y="195.787" width="90" height="90" filterUnits="userSpaceOnUse" color-interpolation-filters="sRGB">
<feFlood flood-opacity="0" result="BackgroundImageFix"/>
<feColorMatrix in="SourceAlpha" type="matrix" values="0 0 0 0 0 0 0 0 0 0 0 0 0 0 0 0 0 0 127 0" result="hardAlpha"/>
<feOffset dy="2"/>
<feGaussianBlur stdDeviation="3"/>
<feComposite in2="hardAlpha" operator="out"/>
<feColorMatrix type="matrix" values="0 0 0 0 0 0 0 0 0 0 0 0 0 0 0 0 0 0 0.18 0"/>
<feBlend mode="normal" in2="BackgroundImageFix" result="effect1_dropShadow_42_851"/>
<feBlend mode="normal" in="SourceGraphic" in2="effect1_dropShadow_42_851" result="shape"/>
</filter>
<filter id="filter1_d_42_851" x="1755.99" y="168.367" width="81.0099" height="83.8383" filterUnits="userSpaceOnUse" color-interpolation-filters="sRGB">
<feFlood flood-opacity="0" result="BackgroundImageFix"/>
<feColorMatrix in="SourceAlpha" type="matrix" values="0 0 0 0 0 0 0 0 0 0 0 0 0 0 0 0 0 0 127 0" result="hardAlpha"/>
<feOffset dy="2"/>
<feGaussianBlur stdDeviation="3"/>
<feComposite in2="hardAlpha" operator="out"/>
<feColorMatrix type="matrix" values="0 0 0 0 0 0 0 0 0 0 0 0 0 0 0 0 0 0 0.18 0"/>
<feBlend mode="normal" in2="BackgroundImageFix" result="effect1_dropShadow_42_851"/>
<feBlend mode="normal" in="SourceGraphic" in2="effect1_dropShadow_42_851" result="shape"/>
</filter>
<filter id="filter2_d_42_851" x="1634.97" y="765.002" width="78.061" height="78.0959" filterUnits="userSpaceOnUse" color-interpolation-filters="sRGB">
<feFlood flood-opacity="0" result="BackgroundImageFix"/>
<feColorMatrix in="SourceAlpha" type="matrix" values="0 0 0 0 0 0 0 0 0 0 0 0 0 0 0 0 0 0 127 0" result="hardAlpha"/>
<feOffset dy="2"/>
<feGaussianBlur stdDeviation="3"/>
<feComposite in2="hardAlpha" operator="out"/>
<feColorMatrix type="matrix" values="0 0 0 0 0 0 0 0 0 0 0 0 0 0 0 0 0 0 0.18 0"/>
<feBlend mode="normal" in2="BackgroundImageFix" result="effect1_dropShadow_42_851"/>
<feBlend mode="normal" in="SourceGraphic" in2="effect1_dropShadow_42_851" result="shape"/>
</filter>
<filter id="filter3_d_42_851" x="43.7105" y="271.711" width="110.701" height="110.701" filterUnits="userSpaceOnUse" color-interpolation-filters="sRGB">
<feFlood flood-opacity="0" result="BackgroundImageFix"/>
<feColorMatrix in="SourceAlpha" type="matrix" values="0 0 0 0 0 0 0 0 0 0 0 0 0 0 0 0 0 0 127 0" result="hardAlpha"/>
<feOffset dy="2"/>
<feGaussianBlur stdDeviation="3"/>
<feComposite in2="hardAlpha" operator="out"/>
<feColorMatrix type="matrix" values="0 0 0 0 0 0 0 0 0 0 0 0 0 0 0 0 0 0 0.18 0"/>
<feBlend mode="normal" in2="BackgroundImageFix" result="effect1_dropShadow_42_851"/>
<feBlend mode="normal" in="SourceGraphic" in2="effect1_dropShadow_42_851" result="shape"/>
</filter>
<filter id="filter4_d_42_851" x="553.618" y="780.618" width="89.0886" height="89.0886" filterUnits="userSpaceOnUse" color-interpolation-filters="sRGB">
<feFlood flood-opacity="0" result="BackgroundImageFix"/>
<feColorMatrix in="SourceAlpha" type="matrix" values="0 0 0 0 0 0 0 0 0 0 0 0 0 0 0 0 0 0 127 0" result="hardAlpha"/>
<feOffset dy="2"/>
<feGaussianBlur stdDeviation="3"/>
<feComposite in2="hardAlpha" operator="out"/>
<feColorMatrix type="matrix" values="0 0 0 0 0 0 0 0 0 0 0 0 0 0 0 0 0 0 0.18 0"/>
<feBlend mode="normal" in2="BackgroundImageFix" result="effect1_dropShadow_42_851"/>
<feBlend mode="normal" in="SourceGraphic" in2="effect1_dropShadow_42_851" result="shape"/>
</filter>
<filter id="filter5_d_42_851" x="1798.73" y="672.734" width="114.531" height="114.531" filterUnits="userSpaceOnUse" color-interpolation-filters="sRGB">
<feFlood flood-opacity="0" result="BackgroundImageFix"/>
<feColorMatrix in="SourceAlpha" type="matrix" values="0 0 0 0 0 0 0 0 0 0 0 0 0 0 0 0 0 0 127 0" result="hardAlpha"/>
<feOffset dy="2"/>
<feGaussianBlur stdDeviation="3"/>
<feComposite in2="hardAlpha" operator="out"/>
<feColorMatrix type="matrix" values="0 0 0 0 0 0 0 0 0 0 0 0 0 0 0 0 0 0 0.18 0"/>
<feBlend mode="normal" in2="BackgroundImageFix" result="effect1_dropShadow_42_851"/>
<feBlend mode="normal" in="SourceGraphic" in2="effect1_dropShadow_42_851" result="shape"/>
</filter>
<clipPath id="clip0_42_851">
<rect width="1959" height="948" fill="white"/>
</clipPath>
<clipPath id="clip1_42_851">
<rect width="45" height="45" fill="white" transform="translate(1783.96 178.787) rotate(16.7442)"/>
</clipPath>
<clipPath id="clip2_42_851">
<rect width="41.7999" height="41.8483" fill="white" transform="matrix(0.984346 -0.176248 0.176854 0.984237 1649.73 785.139)"/>
</clipPath>
<clipPath id="clip3_42_851">
<rect width="65" height="65" fill="white" transform="translate(65.7482 301.129) rotate(-10.2942)"/>
</clipPath>
<clipPath id="clip4_42_851">
<rect width="45.7024" height="44.9145" fill="white" transform="translate(587.941 791.312) rotate(25.2991)"/>
</clipPath>
<clipPath id="clip5_42_851">
<rect width="65" height="71" fill="white" transform="translate(1825.14 684.498) rotate(3.56318)"/>
</clipPath>
<clipPath id="clip6_42_851">
<rect width="65" height="75" fill="white" transform="translate(1824.15 700.467) rotate(3.56318)"/>
</clipPath>
</defs>
</svg>
