<svg width="1464" height="911" viewBox="0 0 1464 911" fill="none" xmlns="http://www.w3.org/2000/svg">
<g clip-path="url(#clip0_47_1471)">
<path d="M1570.03 460.357C1575.14 414.651 1566.74 192.31 1418.84 148.583C1301.72 113.957 1186 171.336 1066.21 165.108C946.414 158.88 689.002 -59.4822 655.316 -233" stroke="#282626" stroke-width="7.78561"/>
<g filter="url(#filter0_d_47_1471)">
<rect x="1256" y="100.787" width="78" height="78" rx="29" fill="#282626"/>
</g>
<g filter="url(#filter1_d_47_1471)">
<rect x="1378.37" y="132.785" width="61" height="65" rx="15" transform="rotate(165 1378.37 132.785)" fill="#282626"/>
</g>
<g clip-path="url(#clip1_47_1471)">
<path d="M1325.44 94.1762L1321.42 107.547L1343.41 130.914L1358.89 127.169L1362.92 113.799L1347.44 117.491L1325.44 94.1762Z" fill="#E0E0E2"/>
<path d="M1344.71 117.143L1326.91 98.2309L1323.45 109.71L1341.25 128.637L1344.71 117.143Z" fill="#C6C5CB"/>
<path d="M1324.49 109.371L1327.61 98.9755L1331.72 103.342L1328.6 113.723L1324.49 109.371Z" fill="#59A4FF"/>
<path d="M1340.92 126.828L1344.05 116.439L1339.94 112.075L1336.82 122.434L1340.92 126.828Z" fill="#59A4FF"/>
<path d="M1329.64 116.28L1333.09 104.798L1338.57 110.62L1335.11 122.11L1329.64 116.28Z" fill="#59A4FF"/>
<path d="M1332.29 119.1L1332.46 119.29L1335.92 107.804L1335.74 107.614L1332.29 119.1Z" fill="#1D81CD"/>
<path d="M1334.05 115.306C1334.01 115.294 1333.97 115.274 1333.95 115.244C1333.89 115.185 1333.87 115.101 1333.89 115.024L1334.47 113.11C1334.49 113.033 1334.56 112.974 1334.64 112.955L1335.1 112.845C1335.22 112.816 1335.35 112.892 1335.37 113.013C1335.4 113.135 1335.33 113.257 1335.21 113.285L1334.87 113.365L1334.44 114.779L1334.53 114.759C1334.65 114.73 1334.77 114.806 1334.8 114.927C1334.83 115.049 1334.75 115.17 1334.63 115.199L1334.16 115.309C1334.12 115.319 1334.08 115.317 1334.05 115.306Z" fill="#D8D8DA"/>
<path d="M1332.85 114.043C1332.81 114.032 1332.78 114.011 1332.75 113.981C1332.7 113.922 1332.68 113.839 1332.7 113.761L1333.28 111.847C1333.3 111.77 1333.36 111.711 1333.44 111.692L1333.91 111.582C1334.03 111.554 1334.15 111.629 1334.18 111.75C1334.21 111.872 1334.13 111.994 1334.01 112.022L1333.67 112.103L1333.25 113.516L1333.33 113.496C1333.45 113.467 1333.58 113.543 1333.61 113.664C1333.63 113.786 1333.56 113.907 1333.44 113.936L1332.97 114.046C1332.93 114.056 1332.89 114.054 1332.85 114.043Z" fill="#D8D8DA"/>
<path d="M1347.44 117.491L1362.92 113.799L1358.89 127.169L1343.41 130.914L1347.44 117.491Z" fill="#C6C5CB"/>
<path d="M1342.74 84.7432L1364.65 108.032L1364.87 113.315L1345.42 117.897L1323.5 94.6089L1327.18 88.4092L1342.74 84.7432Z" fill="#4DBA69"/>
<path d="M1345.42 117.897L1349.09 111.698L1364.65 108.032L1364.87 113.315L1345.42 117.897Z" fill="#378B4F"/>
<path d="M1327.18 88.4092L1349.09 111.698L1345.42 117.897L1323.5 94.6089L1327.18 88.4092Z" fill="#40A559"/>
<path d="M1330.49 89.4065L1342.16 86.657L1361.34 107.034L1349.67 109.784L1330.49 89.4065Z" fill="#2B743F"/>
<path d="M1346.3 101.635L1352.21 100.243L1356.37 104.663L1355.71 106.872L1349.8 108.264L1345.64 103.844L1346.3 101.635Z" fill="#E0E0E2"/>
<path d="M1350.25 101.991C1349.39 102.192 1349.19 102.877 1349.79 103.513C1350.39 104.15 1351.57 104.507 1352.43 104.307C1353.28 104.107 1353.49 103.422 1352.89 102.785C1352.29 102.147 1351.1 101.79 1350.25 101.991Z" fill="#C6C5CB"/>
<path d="M1346.3 101.635L1345.64 103.844L1349.8 108.264L1350.46 106.055L1346.3 101.635Z" fill="#C6C5CB"/>
<path d="M1349.8 108.264L1355.71 106.872L1356.37 104.663L1350.46 106.055L1349.8 108.264Z" fill="#ACABB1"/>
<path d="M1342.89 93.8937L1343.23 92.7605C1343.34 92.3858 1343.21 91.9369 1342.8 91.5042C1341.99 90.6391 1340.38 90.154 1339.22 90.4265C1338.64 90.5627 1338.28 90.8635 1338.17 91.2381L1337.83 92.3713C1337.72 92.7459 1337.85 93.1947 1338.26 93.627C1339.07 94.4912 1340.68 94.9762 1341.84 94.7048C1342.42 94.569 1342.78 94.2685 1342.89 93.8937Z" fill="#C6C5CB"/>
<path d="M1339.22 90.4265C1338.07 90.6989 1337.78 91.6288 1338.6 92.4929C1339.41 93.357 1341.02 93.8421 1342.18 93.5707C1343.34 93.2993 1343.62 92.3693 1342.8 91.5042C1341.99 90.6391 1340.38 90.1541 1339.22 90.4265Z" fill="#E0E0E2"/>
<path d="M1347.07 98.3358L1347.41 97.2026C1347.53 96.828 1347.39 96.379 1346.99 95.9464C1346.17 95.0812 1344.56 94.5962 1343.4 94.8686C1342.82 95.0049 1342.47 95.3056 1342.35 95.6803L1342.01 96.8135L1342.01 96.8135C1341.9 97.1881 1342.03 97.6369 1342.44 98.0691C1343.25 98.9333 1344.86 99.4183 1346.02 99.1469C1346.6 99.0111 1346.96 98.7105 1347.07 98.3358Z" fill="#C6C5CB"/>
<path d="M1343.4 94.8685C1342.25 95.1408 1341.97 96.0708 1342.78 96.9349C1343.59 97.799 1345.2 98.2841 1346.36 98.0127C1347.52 97.7413 1347.8 96.8113 1346.99 95.9462C1346.17 95.081 1344.56 94.596 1343.4 94.8685Z" fill="#E0E0E2"/>
<path d="M1331.86 90.8621C1331.91 90.8693 1341.59 88.5708 1341.59 88.5708L1342.16 86.657L1330.49 89.4065L1331.86 90.8621Z" fill="#378B4F"/>
<path d="M1341.59 88.5708L1359.39 107.493L1361.34 107.034L1342.16 86.657L1341.59 88.5708Z" fill="#40A559"/>
<path d="M1350.68 118.436L1349.53 122.264L1353.4 121.351L1354.55 117.523L1350.68 118.436Z" fill="#2487FF"/>
<path d="M1356.52 117.061L1355.36 120.888L1359.24 119.975L1360.39 116.148L1356.52 117.061Z" fill="#2487FF"/>
<path d="M1332.17 89.8312L1329.87 97.4693L1342.2 110.569L1343.28 110.32L1345.59 102.665L1333.28 89.5915L1332.17 89.8312Z" fill="#E0E0E2"/>
<path d="M1342.2 110.569L1343.28 110.32L1345.59 102.665L1344.5 102.914L1342.2 110.569Z" fill="#C6C5CB"/>
<path d="M1332.17 89.8312L1333.28 89.5915L1345.59 102.665L1344.5 102.914L1332.17 89.8312Z" fill="white"/>
<path d="M1328.82 115.417L1329 115.607L1332.45 104.123L1332.27 103.933L1328.82 115.417Z" fill="#ACABB1"/>
<path d="M1335.7 122.74L1335.88 122.93L1339.34 111.441L1339.16 111.251L1335.7 122.74Z" fill="#ACABB1"/>
<path d="M1335.15 95.3566L1334.87 98.9111L1338.44 102.705L1338.25 103.058L1334.74 99.3277L1334.61 99.745L1338.06 103.412L1338.36 103.73L1340.31 100.014L1341.04 100.789L1341.17 100.371L1340.27 99.4149L1339.77 100.258L1335.15 95.3566Z" fill="#40A559"/>
<path d="M1337.78 104.35C1337.87 104.062 1337.77 103.65 1337.56 103.43C1337.35 103.209 1337.12 103.264 1337.03 103.552C1336.94 103.839 1337.04 104.251 1337.24 104.471C1337.45 104.692 1337.69 104.637 1337.78 104.35Z" fill="#40A559"/>
<path d="M1335.38 101.799C1335.47 101.511 1335.37 101.099 1335.16 100.879C1334.95 100.659 1334.72 100.714 1334.63 101.002C1334.54 101.289 1334.64 101.701 1334.84 101.921L1334.84 101.921C1335.05 102.141 1335.29 102.086 1335.38 101.799Z" fill="#40A559"/>
</g>
<path fill-rule="evenodd" clip-rule="evenodd" d="M1319.2 162.516C1319.2 153.744 1312.2 146.633 1303.56 146.633C1298.43 146.633 1292.73 146.633 1287.6 146.633C1278.96 146.633 1271.96 153.744 1271.96 162.516V164.872H1319.2V162.516Z" fill="#F43131"/>
<path fill-rule="evenodd" clip-rule="evenodd" d="M1319.2 162.145H1271.97C1271.97 162.271 1271.97 162.392 1271.97 162.518V164.873H1319.21V162.518C1319.21 162.392 1319.21 162.271 1319.2 162.145Z" fill="#B72525"/>
<path fill-rule="evenodd" clip-rule="evenodd" d="M1272.01 164.873C1272.62 156.672 1279.37 150.211 1287.61 150.211H1303.57C1311.8 150.211 1318.55 156.672 1319.16 164.873H1319.21V162.518C1319.21 153.745 1312.2 146.638 1303.57 146.638H1287.61C1278.97 146.638 1271.97 153.745 1271.97 162.518V164.873H1272.01Z" fill="#F76565"/>
<path fill-rule="evenodd" clip-rule="evenodd" d="M1299.19 137.571H1292.29V146.633C1294.75 148.985 1297.05 148.985 1299.19 146.633V137.571Z" fill="#B99C54"/>
<path fill-rule="evenodd" clip-rule="evenodd" d="M1292.3 143.251V146.638C1294.76 148.988 1297.05 148.988 1299.2 146.638V143.251C1297.05 145.601 1294.76 145.601 1292.3 143.251Z" fill="#F7D070"/>
<path d="M1295.75 142.566C1300.74 142.566 1304.78 138.003 1304.78 132.375C1304.78 126.746 1300.74 122.184 1295.75 122.184C1290.77 122.184 1286.72 126.746 1286.72 132.375C1286.72 138.003 1290.77 142.566 1295.75 142.566Z" fill="#F7D070"/>
<path fill-rule="evenodd" clip-rule="evenodd" d="M1282.9 147.627V158.819C1282.9 160.269 1282.45 161.683 1281.62 162.861C1280.92 163.849 1280.2 164.872 1280.2 164.872H1310.47C1310.47 164.872 1309.75 163.849 1309.05 162.861C1308.22 161.683 1307.77 160.269 1307.77 158.819C1307.77 154.961 1307.77 147.446 1307.77 147.446C1306.16 146.909 1304.46 146.633 1302.73 146.633C1302.73 146.633 1302.04 152.301 1301.69 155.094C1301.58 155.962 1300.86 156.613 1300 156.613C1297.76 156.613 1293.61 156.613 1291.39 156.613C1290.55 156.613 1289.83 155.987 1289.71 155.139C1289.29 152.362 1288.44 146.633 1288.44 146.633C1286.53 146.633 1284.66 146.969 1282.9 147.627Z" fill="#0D79F2"/>
<path fill-rule="evenodd" clip-rule="evenodd" d="M1288.98 150.25L1288.44 146.638C1286.53 146.638 1284.66 146.971 1282.9 147.631V151.247C1284.66 150.588 1286.53 150.25 1288.44 150.25H1288.98Z" fill="#4A9BF5"/>
<path fill-rule="evenodd" clip-rule="evenodd" d="M1304.02 146.685L1302.74 146.638L1302.29 150.25H1302.74C1304.46 150.25 1306.16 150.527 1307.77 151.065V147.448C1306.56 147.045 1305.3 146.789 1304.02 146.685Z" fill="#4A9BF5"/>
<path fill-rule="evenodd" clip-rule="evenodd" d="M1308.61 162.154H1282.06C1281.93 162.397 1281.78 162.635 1281.62 162.865C1280.92 163.849 1280.2 164.873 1280.2 164.873H1310.47C1310.47 164.873 1309.75 163.849 1309.05 162.865C1308.89 162.635 1308.74 162.397 1308.61 162.154Z" fill="#0A5BB5"/>
<path fill-rule="evenodd" clip-rule="evenodd" d="M1295.74 128.188C1296.63 126.8 1298.18 125.879 1299.94 125.879C1302.69 125.879 1304.93 128.123 1304.93 130.887C1304.93 133.652 1302.69 135.896 1299.94 135.896C1298.95 135.896 1298.02 135.603 1297.24 135.098C1296.33 134.497 1295.15 134.497 1294.24 135.098C1293.46 135.603 1292.53 135.896 1291.53 135.896C1288.78 135.896 1286.54 133.652 1286.54 130.887C1286.54 128.123 1288.78 125.879 1291.53 125.879C1293.3 125.879 1294.85 126.8 1295.74 128.188Z" fill="#9E9E9E"/>
<path fill-rule="evenodd" clip-rule="evenodd" d="M1295.74 126.806C1294.68 125.7 1293.18 125.012 1291.53 125.012C1288.31 125.012 1285.69 127.647 1285.69 130.887C1285.69 134.128 1288.31 136.763 1291.53 136.763C1292.7 136.763 1293.79 136.42 1294.7 135.829C1294.7 135.828 1294.7 135.827 1294.7 135.826C1295.33 135.411 1296.14 135.411 1296.77 135.826C1296.78 135.827 1296.78 135.828 1296.78 135.829C1297.69 136.419 1298.78 136.763 1299.94 136.763C1303.17 136.763 1305.79 134.128 1305.79 130.887C1305.79 127.647 1303.17 125.012 1299.94 125.012C1298.29 125.012 1296.8 125.7 1295.74 126.806ZM1295.02 128.66C1295.18 128.907 1295.45 129.055 1295.74 129.055C1296.03 129.055 1296.3 128.907 1296.45 128.66C1297.19 127.509 1298.48 126.746 1299.94 126.746C1302.22 126.746 1304.08 128.599 1304.08 130.887C1304.08 133.175 1302.22 135.028 1299.94 135.028C1299.12 135.028 1298.35 134.786 1297.7 134.367C1296.51 133.584 1294.97 133.584 1293.78 134.368C1293.13 134.786 1292.36 135.028 1291.53 135.028C1289.26 135.028 1287.4 133.175 1287.4 130.887C1287.4 128.599 1289.26 126.746 1291.53 126.746C1293 126.746 1294.29 127.509 1295.02 128.66Z" fill="#333333"/>
<path fill-rule="evenodd" clip-rule="evenodd" d="M1284.04 128.49C1283.69 127.906 1286.1 126.374 1285.86 125.724C1285.44 124.575 1285.22 124.247 1285.22 122.953C1285.22 117.058 1289.93 112.272 1295.74 112.272C1301.55 112.272 1306.26 117.058 1306.26 122.953C1306.26 124.247 1306.03 124.575 1305.62 125.724C1305.38 126.374 1307.79 127.906 1307.43 128.49H1284.04Z" fill="#F4BB31"/>
<path fill-rule="evenodd" clip-rule="evenodd" d="M1285.42 124.482C1285.29 124.065 1285.23 123.649 1285.23 122.955C1285.23 117.058 1289.94 112.274 1295.75 112.274C1301.55 112.274 1306.27 117.058 1306.27 122.955C1306.27 123.649 1306.2 124.065 1306.08 124.482C1305.14 119.56 1300.87 115.839 1295.75 115.839C1290.62 115.839 1286.35 119.56 1285.42 124.482Z" fill="#F7CC65"/>
<path fill-rule="evenodd" clip-rule="evenodd" d="M1290.86 113.497C1293.44 115.566 1295.14 119.036 1295.14 122.971C1295.14 123.45 1294.75 123.839 1294.28 123.839C1293.81 123.839 1293.43 123.45 1293.43 122.971C1293.43 119.547 1291.95 116.521 1289.69 114.756C1289.57 114.665 1289.49 114.549 1289.44 114.416C1289.89 114.072 1290.36 113.764 1290.86 113.497Z" fill="#B78C25"/>
<path fill-rule="evenodd" clip-rule="evenodd" d="M1300.63 113.497C1301.13 113.763 1301.6 114.068 1302.05 114.416C1302 114.549 1301.92 114.665 1301.8 114.756C1299.54 116.521 1298.06 119.547 1298.06 122.971C1298.06 123.45 1297.68 123.839 1297.21 123.839C1296.74 123.839 1296.35 123.45 1296.35 122.971C1296.35 119.036 1298.05 115.566 1300.63 113.497Z" fill="#B78C25"/>
<path fill-rule="evenodd" clip-rule="evenodd" d="M1285.56 124.903L1285.9 124.836H1290.35C1290.83 124.836 1291.21 125.224 1291.21 125.703C1291.21 126.182 1290.83 126.57 1290.35 126.57H1285.9C1285.76 126.57 1285.63 126.537 1285.51 126.469C1285.77 126.18 1285.93 125.914 1285.86 125.724L1285.56 124.903Z" fill="#B78C25"/>
<path d="M86.897 -97C62.3613 -58.1023 -27.103 145.619 86.897 249.5C177.172 331.762 306.325 330.624 411.397 388.5C516.469 446.376 652.801 755.174 607.398 926.001" stroke="#282626" stroke-width="7.78561"/>
<path d="M535 1329.59C576.374 1349.67 788.746 1416.04 879.371 1291.24C951.136 1192.42 935.712 1064.18 981.603 953.352C1027.49 842.52 1319.31 672.848 1494.11 699.067" stroke="#282626" stroke-width="7.78561"/>
<g filter="url(#filter2_d_47_1471)">
<rect width="62.6998" height="62.7724" rx="21" transform="matrix(-0.984346 0.176248 -0.176854 -0.984237 1243.41 790.416)" fill="#282626"/>
</g>
<g clip-path="url(#clip2_47_1471)">
<path d="M1226.13 764.86L1189 771.508L1188.78 770.23C1187.96 765.306 1189.09 760.345 1191.96 756.263C1194.83 752.176 1199.12 749.441 1204.04 748.561C1208.95 747.681 1213.93 748.757 1218.05 751.592C1222.16 754.424 1224.94 758.684 1225.88 763.587L1226.13 764.86Z" fill="#DFCCBE"/>
<path d="M1224.21 767.708L1225.85 776.871L1215.01 778.812L1214.45 775.675C1214.38 775.281 1214.2 774.797 1213.43 774.533C1212.92 774.357 1212.42 774.375 1212.41 774.376L1212.36 774.378L1208.69 774.464L1197.76 774.718L1191.51 772.881L1190.74 768.594L1218.3 763.659L1224.21 767.708Z" fill="#FFDBA8"/>
<path d="M1224.21 767.708L1225.85 776.871L1215.01 778.812L1214.45 775.675C1214.38 775.281 1214.2 774.797 1213.43 774.533C1212.92 774.357 1212.42 774.375 1212.41 774.376L1212.36 774.378L1208.69 774.464L1207.11 765.663L1218.3 763.659L1224.21 767.708Z" fill="#FFC172"/>
<path d="M1226.13 764.86L1207.56 768.184L1204.04 748.561C1208.95 747.681 1213.93 748.757 1218.05 751.592C1222.16 754.424 1224.94 758.684 1225.88 763.587L1226.13 764.86Z" fill="#C9AD91"/>
<path d="M1227.32 773.958L1213.06 776.512L1214.57 784.951L1228.83 782.398L1227.32 773.958Z" fill="#A7AFF3"/>
<path d="M1227.31 773.958L1220.19 775.235L1221.7 783.674L1228.83 782.398L1227.31 773.958Z" fill="#7885EB"/>
<path d="M1217.97 779.235L1216.29 779.536L1216.6 781.217L1218.27 780.916L1217.97 779.235Z" fill="white"/>
<path d="M1227.68 761.979L1186.54 769.346L1186.99 771.868L1228.14 764.501L1227.68 761.979Z" fill="#867B6E"/>
<path d="M1206.19 746.47C1206.43 747.824 1205.53 749.119 1204.18 749.361C1202.83 749.603 1201.53 748.701 1201.29 747.347C1201.05 745.992 1201.95 744.698 1203.3 744.456C1204.65 744.213 1205.95 745.115 1206.19 746.47Z" fill="#867B6E"/>
<path d="M1204.18 749.361L1203.3 744.456C1204.65 744.213 1205.95 745.115 1206.19 746.47C1206.43 747.824 1205.53 749.119 1204.18 749.361Z" fill="#766957"/>
<path d="M1227.68 761.979L1207.11 765.663L1207.56 768.184L1228.14 764.501L1227.68 761.979Z" fill="#766957"/>
</g>
<g filter="url(#filter3_d_47_1471)">
<rect x="229" y="302.619" width="93" height="93" rx="29" transform="rotate(-10.2942 229 302.619)" fill="#282626"/>
</g>
<g clip-path="url(#clip3_47_1471)">
<path d="M293.709 324.735L262.309 330.438L268.613 365.148C268.785 366.092 269.689 366.718 270.632 366.546L298.615 361.464C299.559 361.293 300.184 360.389 300.013 359.445L293.709 324.735L293.709 324.735Z" fill="#F8E4C5"/>
<path d="M299.032 354.042L267.632 359.745L268.614 365.148C268.785 366.092 269.689 366.718 270.632 366.546L298.615 361.464C299.559 361.292 300.185 360.389 300.013 359.445L299.032 354.042L299.032 354.042Z" fill="#FF496A"/>
<g opacity="0.1">
<path d="M284.332 356.713L282.333 357.076L283.624 364.187L285.623 363.824L284.332 356.713Z" fill="black"/>
<path d="M275.571 358.304L273.572 358.667L274.863 365.778L276.863 365.415L275.571 358.304Z" fill="black"/>
<path d="M293.093 355.122L291.093 355.485L292.385 362.595L294.384 362.232L293.093 355.122Z" fill="black"/>
</g>
<path opacity="0.1" d="M262.309 330.438L264.219 340.951C265.008 340.98 265.813 340.928 266.623 340.781C269.135 340.324 271.294 339.055 272.881 337.295C274.986 338.384 277.453 338.814 279.965 338.357C282.478 337.901 284.636 336.631 286.224 334.871C288.328 335.961 290.796 336.39 293.308 335.934C294.118 335.787 294.889 335.553 295.619 335.248L293.709 324.735L262.309 330.438Z" fill="black"/>
<path opacity="0.1" d="M295.515 334.68L294.464 328.892L285.796 341.407C284.479 343.309 284.953 345.919 286.855 347.236C287.589 347.744 287.772 348.752 287.264 349.485L276.14 365.546L284.883 363.958L292.429 353.063C292.937 352.329 293.944 352.146 294.678 352.654C295.95 353.535 297.537 353.614 298.843 353.002L296.2 338.447L295.851 338.951C295.425 339.566 294.582 339.719 293.967 339.294C293.352 338.868 293.199 338.025 293.625 337.41L295.515 334.68Z" fill="black"/>
<path d="M288.616 310.102C286.104 310.559 283.945 311.828 282.358 313.588C280.253 312.499 277.786 312.069 275.274 312.526C272.761 312.982 270.603 314.252 269.015 316.012C266.911 314.922 264.444 314.493 261.931 314.949C255.894 316.046 251.888 321.829 252.985 327.866C254.081 333.903 259.865 337.908 265.902 336.812C268.414 336.356 270.573 335.086 272.16 333.326C274.265 334.415 276.732 334.845 279.244 334.389C281.757 333.932 283.915 332.663 285.503 330.902C287.608 331.992 290.075 332.422 292.587 331.965C298.624 330.869 302.63 325.085 301.533 319.048C300.437 313.011 294.654 309.006 288.616 310.102Z" fill="#F8E4C5"/>
<path d="M313.414 328.876L305.286 340.612C304.86 341.227 304.017 341.38 303.402 340.954C302.788 340.529 302.635 339.685 303.06 339.071L311.189 327.335C311.843 326.39 311.607 325.095 310.663 324.44C309.719 323.786 308.423 324.022 307.769 324.966L299.641 336.702C299.215 337.317 298.372 337.47 297.757 337.045C297.142 336.619 296.989 335.775 297.415 335.161L305.543 323.425C306.197 322.48 305.962 321.185 305.018 320.531C304.073 319.877 302.778 320.112 302.124 321.056L289.586 339.158C288.269 341.06 288.743 343.67 290.645 344.987C291.379 345.495 291.562 346.502 291.053 347.236L274.438 371.227C273.45 372.653 273.806 374.61 275.232 375.598C276.658 376.586 278.616 376.23 279.604 374.804L296.219 350.814C296.727 350.08 297.734 349.897 298.468 350.405C300.37 351.722 302.98 351.249 304.297 349.347L316.834 331.244C317.488 330.3 317.253 329.004 316.308 328.35C315.364 327.696 314.068 327.932 313.414 328.876Z" fill="#B7B9BC"/>
<path opacity="0.2" d="M305.356 343.885C303.168 344.283 301.717 346.378 302.114 348.566C302.251 349.32 302.59 349.986 303.064 350.52C303.537 350.226 303.959 349.833 304.297 349.347L307.841 344.229C307.097 343.865 306.234 343.726 305.356 343.885Z" fill="white"/>
<path opacity="0.2" d="M302.794 320.441C302.72 320.766 302.708 321.111 302.772 321.46C303.006 322.754 304.184 323.638 305.467 323.534L305.543 323.425C306.197 322.48 305.962 321.185 305.017 320.531C304.335 320.058 303.469 320.052 302.794 320.441ZM316.308 328.35C315.838 328.024 315.28 327.92 314.757 328.013C314.379 328.549 314.208 329.231 314.335 329.927C314.526 330.982 315.346 331.765 316.338 331.961L316.834 331.245C317.488 330.3 317.253 329.004 316.308 328.35ZM309.181 324.094C308.799 324.632 308.625 325.316 308.752 326.016C308.94 327.052 309.733 327.825 310.7 328.039L311.188 327.335C311.842 326.39 311.607 325.095 310.663 324.441C310.213 324.129 309.683 324.021 309.181 324.094Z" fill="white"/>
<path d="M316.887 327.515C315.484 326.544 313.551 326.895 312.579 328.298L304.451 340.034C304.345 340.187 304.134 340.225 303.981 340.119C303.881 340.05 303.85 339.954 303.841 339.902C303.832 339.851 303.826 339.749 303.896 339.649L312.024 327.913C312.996 326.51 312.645 324.577 311.242 323.605C310.562 323.135 309.739 322.957 308.926 323.104C308.112 323.252 307.405 323.708 306.934 324.388L298.806 336.124C298.736 336.224 298.64 336.255 298.588 336.264C298.537 336.273 298.436 336.279 298.336 336.209C298.236 336.14 298.205 336.043 298.196 335.992C298.186 335.94 298.181 335.839 298.25 335.739L306.379 324.003C307.351 322.6 307 320.667 305.596 319.695C304.69 319.067 303.563 318.995 302.616 319.398C302.592 319.22 302.565 319.043 302.533 318.867C301.338 312.288 295.014 307.908 288.435 309.103C286.028 309.54 283.865 310.659 282.134 312.355C279.918 311.376 277.499 311.089 275.092 311.526C272.685 311.963 270.522 313.082 268.792 314.778C266.575 313.799 264.156 313.512 261.75 313.949C255.171 315.144 250.79 321.469 251.985 328.047C252.969 333.461 257.426 337.385 262.639 337.94L267.614 365.33C267.885 366.823 269.321 367.817 270.814 367.546L276.462 366.52L273.603 370.648C272.298 372.533 272.769 375.128 274.654 376.433C275.596 377.086 276.716 377.294 277.764 377.104C278.811 376.914 279.786 376.325 280.439 375.383L288.032 364.419L298.797 362.464C300.29 362.192 301.284 360.757 301.013 359.264L299.701 352.039C300.376 352.193 301.082 352.21 301.783 352.083C303.151 351.834 304.341 351.068 305.132 349.925L317.669 331.823C318.641 330.42 318.29 328.487 316.887 327.515ZM264.065 335.972C263.897 335.975 263.728 335.973 263.56 335.967C258.921 335.804 254.847 332.433 253.985 327.684C252.99 322.208 256.636 316.943 262.113 315.948C264.326 315.547 266.551 315.88 268.548 316.914C268.959 317.126 269.461 317.035 269.77 316.692C271.276 315.022 273.242 313.927 275.455 313.525C277.668 313.123 279.894 313.457 281.891 314.491C282.301 314.703 282.803 314.612 283.112 314.269C284.618 312.599 286.584 311.504 288.798 311.102C294.274 310.107 299.539 313.753 300.533 319.23C300.659 319.922 300.712 320.631 300.69 321.341L294.437 330.37C293.78 330.64 293.098 330.84 292.405 330.966C290.192 331.368 287.967 331.034 285.97 330C285.559 329.788 285.057 329.879 284.748 330.222C283.242 331.892 281.276 332.987 279.063 333.389C276.85 333.791 274.624 333.457 272.627 332.424C272.217 332.211 271.715 332.302 271.406 332.646C269.9 334.315 267.934 335.41 265.721 335.812C265.543 335.845 265.365 335.872 265.185 335.895C265.172 335.896 265.159 335.897 265.146 335.899C264.977 335.919 264.808 335.936 264.639 335.948C264.633 335.949 264.628 335.949 264.622 335.949C264.446 335.962 264.27 335.969 264.093 335.973C264.084 335.972 264.074 335.972 264.065 335.972ZM270.451 365.547C270.06 365.618 269.684 365.357 269.613 364.967L264.712 337.98C264.935 337.966 265.159 337.945 265.384 337.917C265.392 337.916 265.4 337.915 265.408 337.914C265.506 337.902 265.604 337.889 265.702 337.874C265.719 337.871 265.736 337.869 265.752 337.867C265.863 337.85 265.973 337.832 266.083 337.812C268.49 337.374 270.653 336.255 272.384 334.559C274.601 335.538 277.019 335.825 279.426 335.388C281.833 334.951 283.996 333.832 285.727 332.136C287.899 333.095 290.265 333.388 292.624 332.988L288.751 338.58C287.96 339.723 287.661 341.105 287.909 342.473C288.157 343.841 288.924 345.03 290.067 345.822C290.339 346.011 290.407 346.385 290.218 346.658L278.098 364.158L270.451 365.547ZM299.014 359.627C299.085 360.018 298.825 360.393 298.434 360.464L289.668 362.056L297.054 351.392C297.155 351.247 297.309 351.162 297.473 351.141L299.014 359.627ZM315.999 330.666L303.462 348.768C302.466 350.206 300.485 350.566 299.047 349.57C297.853 348.744 296.21 349.042 295.384 350.235L278.768 374.226C278.101 375.189 276.774 375.43 275.811 374.763C274.847 374.095 274.606 372.769 275.274 371.805L291.889 347.815C292.715 346.622 292.417 344.978 291.224 344.152C289.785 343.156 289.426 341.175 290.422 339.737L302.959 321.635C303.126 321.394 303.376 321.243 303.643 321.194C303.911 321.146 304.198 321.199 304.439 321.366C304.921 321.7 305.042 322.364 304.708 322.846L296.58 334.583C296.219 335.103 296.083 335.732 296.196 336.355C296.309 336.978 296.658 337.519 297.178 337.88C297.699 338.24 298.328 338.376 298.951 338.263C299.574 338.15 300.116 337.801 300.476 337.281L308.604 325.545C308.766 325.311 309.009 325.154 309.289 325.104C309.568 325.053 309.851 325.114 310.084 325.276C310.567 325.61 310.687 326.274 310.353 326.756L302.225 338.492C301.865 339.013 301.728 339.642 301.842 340.265C301.955 340.888 302.304 341.429 302.824 341.79C303.898 342.534 305.377 342.265 306.121 341.191L314.249 329.455C314.583 328.972 315.248 328.852 315.73 329.186C316.212 329.52 316.333 330.184 315.999 330.666Z" fill="black"/>
<path opacity="0.2" d="M278.601 371.996C278.345 372.042 278.071 371.991 277.841 371.832C277.38 371.512 277.265 370.879 277.584 370.418L282.245 363.688C282.565 363.226 283.198 363.111 283.659 363.431C284.12 363.75 284.235 364.383 283.916 364.845L279.254 371.575C279.095 371.805 278.857 371.949 278.601 371.996Z" fill="black"/>
</g>
<g filter="url(#filter4_d_47_1471)">
<rect x="579.633" y="670" width="69.3416" height="69.3416" rx="23" transform="rotate(25.2991 579.633 670)" fill="#282626"/>
</g>
<g clip-path="url(#clip4_47_1471)">
<path d="M614.064 727.502L576.132 709.573C580.258 700.844 589.826 696.404 599.026 698.274C599.712 698.412 600.394 698.586 601.072 698.796L606.562 701.391C615.118 707.034 618.497 718.124 614.064 727.502Z" fill="#FF6F52"/>
<path d="M602.197 721.893L584.251 713.411C587.691 715.037 591.775 713.615 593.373 710.234L599.026 698.274C599.712 698.412 600.394 698.586 601.072 698.796L604.679 700.501C604.664 700.546 604.646 700.591 604.625 700.635L598.861 712.829C597.264 716.209 598.757 720.267 602.197 721.893Z" fill="#E25749"/>
<path d="M605.342 700.814L601.072 698.796C591.28 695.766 580.565 700.195 576.132 709.573L580.402 711.591C584.835 702.213 595.55 697.784 605.342 700.814Z" fill="#E25749"/>
<path d="M600.736 713.714L606.5 701.521C606.794 700.898 606.519 700.151 605.885 699.852L602.69 698.341C602.057 698.042 601.305 698.304 601.011 698.926L595.247 711.12C593.649 714.5 589.566 715.923 586.126 714.297L575.142 709.105L572.574 714.536L612.488 733.402L615.055 727.971L604.071 722.779C600.631 721.153 599.138 717.095 600.736 713.714Z" fill="#FF6F52"/>
<path d="M582.199 712.441L575.141 709.105L572.574 714.536L579.632 717.872L582.199 712.441Z" fill="#E25749"/>
<path d="M604.251 729.509C603.327 731.233 598.675 733.357 598.675 733.357C593.053 731.35 587.621 728.848 582.444 725.88C581.871 725.551 581.302 725.217 580.736 724.877C580.736 724.877 579.423 719.934 580.17 718.127L604.251 729.509Z" fill="#FF6F52"/>
<path d="M582.444 725.88C581.871 725.551 581.302 725.217 580.736 724.877C580.736 724.877 579.423 719.934 580.17 718.127L584.286 720.072C582.623 721.678 582.444 725.88 582.444 725.88Z" fill="#E25749"/>
<path d="M615.333 727.257L615.031 727.115C616.962 722.612 617.267 717.567 615.879 712.819C614.478 708.029 611.455 703.852 607.341 701.005C607.348 700.237 606.912 699.492 606.163 699.138L602.968 697.628C602.219 697.274 601.365 697.41 600.776 697.903C599.475 697.532 598.139 697.281 596.796 697.155C596.37 697.116 595.996 697.425 595.961 697.846C595.935 698.175 596.122 698.474 596.407 698.609C596.488 698.647 596.577 698.673 596.671 698.681C597.77 698.783 598.863 698.978 599.935 699.258L594.496 710.765C593.08 713.759 589.45 715.023 586.403 713.583L577.127 709.199C580.327 703.062 586.579 699.034 593.625 698.628C594.051 698.603 594.373 698.241 594.342 697.818C594.311 697.395 593.94 697.073 593.514 697.098C585.906 697.537 579.158 701.895 575.72 708.533L575.419 708.391C575.031 708.208 574.57 708.368 574.39 708.75L571.823 714.181C571.642 714.562 571.811 715.02 572.199 715.204L579.209 718.517C578.828 720.74 579.811 724.564 579.937 725.04C579.989 725.235 580.116 725.403 580.291 725.508C583.15 727.223 586.1 728.8 589.121 730.227C592.141 731.655 595.232 732.934 598.371 734.055C598.564 734.123 598.774 734.115 598.958 734.031C599.406 733.826 602.985 732.158 604.461 730.453L612.112 734.07C612.5 734.253 612.961 734.093 613.141 733.712L615.709 728.28C615.889 727.899 615.721 727.441 615.333 727.257ZM612.063 732.357L602.567 727.868C602.179 727.685 601.718 727.845 601.538 728.227C601.358 728.608 601.526 729.066 601.914 729.249L602.99 729.758C601.982 730.711 599.978 731.839 598.577 732.505C592.604 730.351 586.814 727.614 581.358 724.366C580.983 722.861 580.582 720.596 580.68 719.212L599.373 728.048C599.761 728.232 600.222 728.071 600.402 727.69C600.582 727.308 600.414 726.85 600.026 726.667L573.554 714.155L575.469 710.104L585.75 714.964C589.572 716.771 594.126 715.185 595.901 711.429L601.665 699.236C601.778 698.995 602.07 698.893 602.315 699.009L605.51 700.519C605.755 700.635 605.862 700.925 605.748 701.166L603.925 705.022C603.745 705.403 603.913 705.861 604.301 706.045C604.689 706.228 605.15 706.068 605.33 705.686L606.829 702.516C610.462 705.149 613.131 708.921 614.391 713.227C615.675 717.617 615.399 722.282 613.624 726.45L604.348 722.065C601.302 720.625 599.974 717.018 601.39 714.023L604.15 708.184C604.33 707.802 604.162 707.344 603.774 707.161C603.386 706.977 602.925 707.138 602.745 707.519L599.984 713.359C598.209 717.115 599.874 721.64 603.696 723.447L613.977 728.306L612.063 732.357L612.063 732.357Z" fill="black"/>
<path d="M612.323 721.826C612.711 722.01 613.172 721.849 613.352 721.468C613.533 721.086 613.364 720.628 612.976 720.445C612.588 720.262 612.127 720.422 611.947 720.803C611.767 721.185 611.935 721.643 612.323 721.826Z" fill="black"/>
<path d="M611.173 724.26C611.561 724.443 612.022 724.283 612.202 723.901C612.382 723.52 612.214 723.062 611.826 722.879C611.438 722.695 610.977 722.856 610.797 723.237C610.616 723.618 610.785 724.076 611.173 724.26Z" fill="black"/>
<path d="M581.525 707.268C581.913 707.452 582.374 707.291 582.554 706.91C582.734 706.529 582.566 706.071 582.178 705.887C581.79 705.704 581.329 705.864 581.149 706.246C580.968 706.627 581.137 707.085 581.525 707.268Z" fill="black"/>
<path d="M580.375 709.702C580.763 709.886 581.224 709.725 581.404 709.344C581.584 708.962 581.416 708.504 581.028 708.321C580.64 708.138 580.179 708.298 579.999 708.679C579.819 709.061 579.987 709.519 580.375 709.702Z" fill="black"/>
</g>
<g filter="url(#filter5_d_47_1471)">
<path d="M1351.84 687.947C1352.59 675.82 1363.03 666.601 1375.16 667.356L1404.31 669.171C1416.43 669.926 1425.65 680.369 1424.9 692.496L1423.37 717.043C1422.61 729.169 1412.17 738.388 1400.04 737.633L1370.9 735.818C1358.77 735.063 1349.55 724.62 1350.31 712.493L1351.84 687.947Z" fill="#282626"/>
</g>
<g clip-path="url(#clip5_47_1471)">
<g clip-path="url(#clip6_47_1471)">
<path d="M1385.31 695.809C1385.31 695.809 1385.14 695.192 1384.73 694.956C1384.31 694.72 1383.6 694.644 1383.6 694.644L1381.46 709.517L1381.98 716.955C1381.98 716.955 1382.21 717.846 1382.96 717.924C1383.7 718.002 1389.89 718.356 1390.43 718.39C1390.98 718.423 1391.2 717.68 1391.24 717.35C1391.29 717.02 1391.32 716.462 1391.32 716.462L1393.96 716.615C1393.96 716.615 1394.04 717.809 1393.74 718.54C1393.48 719.174 1393.25 719.679 1393.24 719.9C1393.22 720.216 1393.6 720.557 1394.06 720.558C1394.52 720.555 1395.24 719.966 1395.73 719.603C1396.21 719.241 1403.55 719.789 1403.55 719.789C1403.55 719.789 1403.86 720.498 1404.22 720.937C1404.45 721.201 1404.82 721.347 1405.17 721.369C1405.51 721.39 1405.97 720.935 1405.9 720.598C1405.84 720.261 1405.49 719.474 1405.47 718.727C1405.46 718.39 1405.56 717.456 1405.73 717.312C1405.77 717.279 1406.34 717.334 1406.87 717.308C1407.79 717.266 1408.77 716.086 1408.95 715.13C1409.12 714.173 1409.23 711.123 1409.23 711.123L1385.31 695.809Z" fill="#B3AFAF"/>
<path d="M1382.02 712.406L1409.06 714.09C1409.06 714.09 1409.07 714.892 1408.91 715.397C1408.82 715.665 1408.69 715.914 1408.51 716.13L1382.05 714.478L1382.02 712.406Z" fill="#9A9A9A"/>
<path d="M1372.62 710.524L1366.78 712.032L1363.98 710.815C1363.98 710.815 1364.43 705.158 1364.5 704.588C1364.57 704.017 1364.74 703.524 1365.28 703.197C1365.81 702.869 1367.3 702.062 1367.3 702.062C1367.3 702.062 1372.15 694.915 1372.56 694.401C1372.97 693.887 1373.47 693.26 1374.57 693.222C1375.67 693.183 1382.41 693.69 1383.02 693.763C1383.63 693.837 1384.07 694.158 1383.98 695.556C1383.89 696.954 1383.19 707.623 1383.13 708.158C1383.06 708.693 1380.38 710.504 1380.38 710.504L1372.62 710.524Z" fill="#E0E0E0"/>
<path d="M1380.53 717.832C1380.53 717.832 1381.07 717.882 1381.46 717.85C1381.84 717.819 1382.43 717.455 1382.52 716.513C1382.57 715.953 1383.13 708.158 1383.13 708.158L1372.92 707.546L1369.38 711.143L1363.98 710.815C1363.98 710.815 1363.82 713.045 1363.8 713.642C1363.77 714.244 1366.63 715.734 1366.63 715.734L1380.53 717.832Z" fill="#DC0D28"/>
<path d="M1363.8 713.642L1369.95 714.025C1369.95 714.025 1371.44 711.343 1375.22 711.626C1380.78 712.044 1380.53 717.828 1380.53 717.828L1366.04 716.926C1365.23 716.876 1364.08 716.519 1363.85 715.418C1363.66 714.494 1363.8 713.642 1363.8 713.642Z" fill="#B10A1B"/>
<path d="M1368.2 703.676C1368.2 703.676 1368.24 703.032 1367.84 702.983C1367.44 702.935 1366.98 703.172 1366.55 703.506C1366.11 703.859 1365.87 704.189 1365.77 704.484C1365.62 704.923 1365.7 705.328 1366.35 705.389C1367.16 705.466 1379.92 706.174 1380.51 706.159C1381.25 706.138 1381.72 705.834 1381.73 705.252C1381.74 704.694 1381.37 704.492 1379.79 704.374C1378.21 704.256 1368.2 703.676 1368.2 703.676Z" fill="white"/>
<path d="M1364.44 705.333C1364.44 705.333 1368.28 705.446 1368.36 705.549C1368.47 705.703 1368.37 707.608 1368.31 707.893C1368.25 708.179 1367.88 708.358 1367.44 708.35C1366.99 708.342 1364.2 708.216 1364.2 708.216L1364.44 705.333Z" fill="#FDEDC5"/>
<path d="M1380.38 703.741C1380.98 703.778 1381.23 703.08 1381.26 702.59L1381.65 696.394C1381.68 695.904 1381.4 695.621 1380.47 695.516C1379.55 695.415 1375.3 695.202 1374.83 695.189C1374.12 695.168 1373.61 695.469 1372.89 696.384C1372.43 696.978 1369.53 701.372 1369.3 701.734C1369.06 702.1 1368.75 703.084 1369.85 703.172C1370.98 703.266 1380.38 703.741 1380.38 703.741Z" fill="#5F6369"/>
<path d="M1370.46 702.076L1379.92 702.665C1380.11 702.677 1380.29 702.467 1380.31 702.198C1380.33 701.929 1380.6 697.736 1380.63 697.488C1380.69 696.802 1380.21 696.614 1379.79 696.611C1379.37 696.609 1375.1 696.327 1374.84 696.323C1374.36 696.317 1373.83 696.97 1373.37 697.619C1372.81 698.405 1370.46 702.076 1370.46 702.076Z" fill="#AFE3FB"/>
<path d="M1370.56 702.82C1370.54 703.822 1372.01 704.738 1372.39 704.785C1372.77 704.833 1373.05 704.069 1373.16 703.025C1373.26 701.981 1372.92 701.091 1372.6 701.072C1372.28 701.052 1370.58 701.973 1370.56 702.82Z" fill="#5F6369"/>
<path d="M1369.96 717.804C1369.87 719.781 1371.18 722.714 1374.43 722.936C1377.68 723.158 1379.53 720.641 1379.6 717.945C1379.66 715.205 1377.77 713.149 1374.86 713.055C1372.14 712.973 1370.09 715.073 1369.96 717.804Z" fill="#4E433D"/>
<path d="M1372.29 717.835C1372.24 718.874 1372.93 720.424 1374.64 720.542C1376.35 720.661 1377.26 719.409 1377.3 717.988C1377.33 716.543 1376.3 715.4 1374.87 715.335C1373.44 715.266 1372.36 716.392 1372.29 717.835Z" fill="#C8C8C8"/>
<path d="M1394.73 719.347C1394.64 721.324 1395.96 724.256 1399.21 724.478C1402.46 724.701 1404.31 722.183 1404.37 719.487C1404.44 716.748 1402.54 714.691 1399.63 714.597C1396.91 714.515 1394.86 716.616 1394.73 719.347Z" fill="#4E433D"/>
<path d="M1397.06 719.377C1397.01 720.417 1397.71 721.966 1399.42 722.085C1401.12 722.203 1402.03 720.951 1402.07 719.53C1402.1 718.085 1401.08 716.943 1399.64 716.878C1398.22 716.808 1397.14 717.935 1397.06 719.377Z" fill="#C8C8C8"/>
<path d="M1385.5 685.866C1385.57 684.831 1386.02 684.444 1386.81 684.536C1387.6 684.625 1409.21 685.847 1409.91 685.891C1410.62 685.935 1410.85 686.738 1410.82 687.193C1410.79 687.647 1409.22 710.679 1409.22 711.127C1409.22 711.575 1409.06 712.187 1408.31 712.224C1407.56 712.26 1385.41 710.837 1384.94 710.768C1384.47 710.699 1383.9 710.248 1383.94 709.668C1383.98 709.083 1385.47 686.403 1385.5 685.866Z" fill="#D16E1D"/>
<path d="M1387.41 686.897C1387.38 687.434 1385.97 707.546 1385.94 708.043C1385.91 708.541 1386.11 709.136 1386.74 709.176C1387.37 709.215 1406.72 710.46 1407.12 710.445C1407.52 710.43 1407.77 710.196 1407.85 709.535C1407.93 708.873 1409.18 688.673 1409.23 688.009C1409.27 687.346 1408.64 687.267 1407.97 687.225C1407.3 687.184 1388.37 686.045 1388.09 686.071C1387.82 686.089 1387.45 686.36 1387.41 686.897Z" fill="#F5B03A"/>
<path d="M1390.62 710.123C1391.05 702.835 1392.06 685.838 1392.16 685.381L1392.71 685.522L1393.27 685.628C1393.18 686.276 1392.31 700.669 1391.74 710.189L1390.62 710.123Z" fill="#D16E1D"/>
<path d="M1397.9 685.805L1399.02 685.875L1397.48 710.59L1396.36 710.52L1397.9 685.805Z" fill="#D16E1D"/>
<path d="M1403.58 686.179L1404.7 686.249L1403.17 710.841L1402.05 710.771L1403.58 686.179Z" fill="#D16E1D"/>
</g>
</g>
</g>
<defs>
<filter id="filter0_d_47_1471" x="1250" y="96.7867" width="90" height="90" filterUnits="userSpaceOnUse" color-interpolation-filters="sRGB">
<feFlood flood-opacity="0" result="BackgroundImageFix"/>
<feColorMatrix in="SourceAlpha" type="matrix" values="0 0 0 0 0 0 0 0 0 0 0 0 0 0 0 0 0 0 127 0" result="hardAlpha"/>
<feOffset dy="2"/>
<feGaussianBlur stdDeviation="3"/>
<feComposite in2="hardAlpha" operator="out"/>
<feColorMatrix type="matrix" values="0 0 0 0 0 0 0 0 0 0 0 0 0 0 0 0 0 0 0.18 0"/>
<feBlend mode="normal" in2="BackgroundImageFix" result="effect1_dropShadow_47_1471"/>
<feBlend mode="normal" in="SourceGraphic" in2="effect1_dropShadow_47_1471" result="shape"/>
</filter>
<filter id="filter1_d_47_1471" x="1299.99" y="69.3674" width="81.0098" height="83.8382" filterUnits="userSpaceOnUse" color-interpolation-filters="sRGB">
<feFlood flood-opacity="0" result="BackgroundImageFix"/>
<feColorMatrix in="SourceAlpha" type="matrix" values="0 0 0 0 0 0 0 0 0 0 0 0 0 0 0 0 0 0 127 0" result="hardAlpha"/>
<feOffset dy="2"/>
<feGaussianBlur stdDeviation="3"/>
<feComposite in2="hardAlpha" operator="out"/>
<feColorMatrix type="matrix" values="0 0 0 0 0 0 0 0 0 0 0 0 0 0 0 0 0 0 0.18 0"/>
<feBlend mode="normal" in2="BackgroundImageFix" result="effect1_dropShadow_47_1471"/>
<feBlend mode="normal" in="SourceGraphic" in2="effect1_dropShadow_47_1471" result="shape"/>
</filter>
<filter id="filter2_d_47_1471" x="1167.97" y="728.002" width="78.061" height="78.0959" filterUnits="userSpaceOnUse" color-interpolation-filters="sRGB">
<feFlood flood-opacity="0" result="BackgroundImageFix"/>
<feColorMatrix in="SourceAlpha" type="matrix" values="0 0 0 0 0 0 0 0 0 0 0 0 0 0 0 0 0 0 127 0" result="hardAlpha"/>
<feOffset dy="2"/>
<feGaussianBlur stdDeviation="3"/>
<feComposite in2="hardAlpha" operator="out"/>
<feColorMatrix type="matrix" values="0 0 0 0 0 0 0 0 0 0 0 0 0 0 0 0 0 0 0.18 0"/>
<feBlend mode="normal" in2="BackgroundImageFix" result="effect1_dropShadow_47_1471"/>
<feBlend mode="normal" in="SourceGraphic" in2="effect1_dropShadow_47_1471" result="shape"/>
</filter>
<filter id="filter3_d_47_1471" x="227.71" y="286.711" width="110.701" height="110.701" filterUnits="userSpaceOnUse" color-interpolation-filters="sRGB">
<feFlood flood-opacity="0" result="BackgroundImageFix"/>
<feColorMatrix in="SourceAlpha" type="matrix" values="0 0 0 0 0 0 0 0 0 0 0 0 0 0 0 0 0 0 127 0" result="hardAlpha"/>
<feOffset dy="2"/>
<feGaussianBlur stdDeviation="3"/>
<feComposite in2="hardAlpha" operator="out"/>
<feColorMatrix type="matrix" values="0 0 0 0 0 0 0 0 0 0 0 0 0 0 0 0 0 0 0.18 0"/>
<feBlend mode="normal" in2="BackgroundImageFix" result="effect1_dropShadow_47_1471"/>
<feBlend mode="normal" in="SourceGraphic" in2="effect1_dropShadow_47_1471" result="shape"/>
</filter>
<filter id="filter4_d_47_1471" x="551.618" y="673.618" width="89.0884" height="89.0886" filterUnits="userSpaceOnUse" color-interpolation-filters="sRGB">
<feFlood flood-opacity="0" result="BackgroundImageFix"/>
<feColorMatrix in="SourceAlpha" type="matrix" values="0 0 0 0 0 0 0 0 0 0 0 0 0 0 0 0 0 0 127 0" result="hardAlpha"/>
<feOffset dy="2"/>
<feGaussianBlur stdDeviation="3"/>
<feComposite in2="hardAlpha" operator="out"/>
<feColorMatrix type="matrix" values="0 0 0 0 0 0 0 0 0 0 0 0 0 0 0 0 0 0 0.18 0"/>
<feBlend mode="normal" in2="BackgroundImageFix" result="effect1_dropShadow_47_1471"/>
<feBlend mode="normal" in="SourceGraphic" in2="effect1_dropShadow_47_1471" result="shape"/>
</filter>
<filter id="filter5_d_47_1471" x="1344.27" y="663.313" width="86.6738" height="82.3627" filterUnits="userSpaceOnUse" color-interpolation-filters="sRGB">
<feFlood flood-opacity="0" result="BackgroundImageFix"/>
<feColorMatrix in="SourceAlpha" type="matrix" values="0 0 0 0 0 0 0 0 0 0 0 0 0 0 0 0 0 0 127 0" result="hardAlpha"/>
<feOffset dy="2"/>
<feGaussianBlur stdDeviation="3"/>
<feComposite in2="hardAlpha" operator="out"/>
<feColorMatrix type="matrix" values="0 0 0 0 0 0 0 0 0 0 0 0 0 0 0 0 0 0 0.18 0"/>
<feBlend mode="normal" in2="BackgroundImageFix" result="effect1_dropShadow_47_1471"/>
<feBlend mode="normal" in="SourceGraphic" in2="effect1_dropShadow_47_1471" result="shape"/>
</filter>
<clipPath id="clip0_47_1471">
<rect width="1464" height="911" fill="white"/>
</clipPath>
<clipPath id="clip1_47_1471">
<rect width="45" height="45" fill="white" transform="translate(1327.96 79.7867) rotate(16.7442)"/>
</clipPath>
<clipPath id="clip2_47_1471">
<rect width="41.7999" height="41.8483" fill="white" transform="matrix(0.984346 -0.176248 0.176854 0.984237 1182.73 748.139)"/>
</clipPath>
<clipPath id="clip3_47_1471">
<rect width="65" height="65" fill="white" transform="translate(249.748 316.129) rotate(-10.2942)"/>
</clipPath>
<clipPath id="clip4_47_1471">
<rect width="45.7024" height="44.9145" fill="white" transform="translate(585.941 684.312) rotate(25.2991)"/>
</clipPath>
<clipPath id="clip5_47_1471">
<rect width="64.1366" height="56.3218" fill="white" transform="translate(1364.5 679) rotate(3.56318)"/>
</clipPath>
<clipPath id="clip6_47_1471">
<rect width="49.7726" height="59.0213" fill="white" transform="translate(1364.26 682.851) rotate(3.56318)"/>
</clipPath>
</defs>
</svg>
