<svg width="432" height="568" viewBox="0 0 432 568" fill="none" xmlns="http://www.w3.org/2000/svg">
<g clip-path="url(#clip0_40_823)">
<path d="M322.725 -174C299.849 -149.004 209.182 -10.7158 282.111 89.9477C339.863 169.661 436.414 193.189 508.071 257.122C579.728 321.055 645.311 582.033 591.392 703.585" stroke="#282626" stroke-width="7.78561"/>
<path d="M19.5453 879.739C51.932 869.778 200.162 796.484 188.282 672.747C178.875 574.762 107.551 505.562 78.1599 414.139C48.7693 322.715 124.442 64.4822 232.51 -13.0001" stroke="#282626" stroke-width="7.78561"/>
<g filter="url(#filter0_d_40_823)">
<rect x="51" y="397.913" width="61.0697" height="61.0697" rx="23" transform="rotate(-10.2942 51 397.913)" fill="#282626"/>
</g>
<g clip-path="url(#clip1_40_823)">
<path d="M93.4925 412.436L72.8733 416.181L77.0131 438.974C77.1256 439.593 77.7191 440.004 78.3387 439.892L96.714 436.554C97.3337 436.442 97.7447 435.848 97.6321 435.229L93.4924 412.436L93.4925 412.436Z" fill="#F8E4C5"/>
<path d="M96.9878 431.681L76.3687 435.426L77.013 438.974C77.1256 439.593 77.7191 440.004 78.3387 439.892L96.7139 436.554C97.3336 436.442 97.7446 435.848 97.6321 435.229L96.9877 431.681L96.9878 431.681Z" fill="#FF496A"/>
<g opacity="0.1">
<path d="M87.3346 433.434L86.0217 433.673L86.8698 438.342L88.1827 438.104L87.3346 433.434Z" fill="black"/>
<path d="M81.5817 434.479L80.2688 434.718L81.1169 439.387L82.4297 439.149L81.5817 434.479Z" fill="black"/>
<path d="M93.0873 432.389L91.7744 432.628L92.6225 437.297L93.9354 437.059L93.0873 432.389Z" fill="black"/>
</g>
<path opacity="0.1" d="M72.8733 416.181L74.1272 423.085C74.6459 423.104 75.1742 423.069 75.7059 422.973C77.3558 422.673 78.7731 421.839 79.8155 420.683C81.1977 421.399 82.8177 421.681 84.4675 421.381C86.1173 421.082 87.5347 420.248 88.5771 419.092C89.9593 419.807 91.5793 420.09 93.2291 419.79C93.7608 419.693 94.2676 419.54 94.7464 419.34L93.4925 412.436L72.8733 416.181Z" fill="black"/>
<path opacity="0.1" d="M94.6786 418.966L93.9883 415.166L88.2965 423.384C87.4315 424.633 87.7428 426.346 88.9917 427.211C89.4736 427.545 89.5937 428.207 89.26 428.688L81.9556 439.235L87.6968 438.192L92.6519 431.038C92.9856 430.556 93.647 430.436 94.1289 430.769C94.9638 431.348 96.006 431.399 96.8638 430.998L95.1279 421.44L94.8987 421.771C94.6191 422.175 94.0654 422.275 93.6618 421.996C93.2581 421.716 93.1575 421.163 93.4371 420.759L94.6786 418.966Z" fill="black"/>
<path d="M90.1481 402.827C88.4983 403.127 87.0809 403.96 86.0386 405.116C84.6562 404.401 83.0363 404.119 81.3864 404.418C79.7366 404.718 78.3193 405.552 77.2769 406.708C75.8947 405.992 74.2747 405.71 72.6249 406.01C68.6604 406.73 66.0303 410.527 66.7503 414.492C67.4703 418.456 71.2679 421.086 75.2324 420.366C76.8822 420.067 78.2995 419.233 79.3419 418.077C80.7241 418.793 82.3441 419.075 83.994 418.775C85.6438 418.475 87.0611 417.642 88.1035 416.486C89.4857 417.201 91.1057 417.483 92.7556 417.184C96.7201 416.464 99.3501 412.666 98.6301 408.702C97.9102 404.737 94.1126 402.107 90.1481 402.827Z" fill="#F8E4C5"/>
<path d="M106.432 415.155L101.094 422.862C100.815 423.266 100.261 423.366 99.8575 423.087C99.4539 422.807 99.3533 422.253 99.6329 421.85L104.97 414.143C105.4 413.523 105.245 412.672 104.625 412.242C104.005 411.813 103.154 411.968 102.725 412.588L97.3873 420.294C97.1077 420.698 96.554 420.799 96.1504 420.519C95.7468 420.24 95.6462 419.686 95.9258 419.282L101.263 411.575C101.693 410.955 101.538 410.104 100.918 409.675C100.298 409.246 99.4472 409.4 99.0178 410.02L90.785 421.907C89.92 423.156 90.2312 424.87 91.4801 425.735C91.962 426.068 92.0821 426.73 91.7484 427.212L80.8377 442.965C80.189 443.902 80.4225 445.187 81.3591 445.836C82.2957 446.485 83.581 446.251 84.2297 445.314L95.1403 429.561C95.4741 429.079 96.1354 428.959 96.6173 429.293C97.8663 430.158 99.5798 429.846 100.445 428.597L108.678 416.71C109.107 416.09 108.952 415.239 108.332 414.81C107.712 414.381 106.862 414.535 106.432 415.155Z" fill="#B7B9BC"/>
<path opacity="0.2" d="M101.14 425.011C99.7039 425.272 98.7508 426.648 99.0117 428.085C99.1017 428.58 99.3241 429.017 99.6357 429.368C99.9463 429.175 100.224 428.917 100.445 428.597L102.773 425.237C102.284 424.998 101.717 424.906 101.14 425.011Z" fill="white"/>
<path opacity="0.2" d="M99.4585 409.616C99.4095 409.83 99.4019 410.056 99.4435 410.285C99.5978 411.135 100.371 411.715 101.214 411.647L101.263 411.575C101.693 410.955 101.538 410.104 100.918 409.675C100.47 409.365 99.9016 409.361 99.4585 409.616ZM108.333 414.81C108.023 414.596 107.657 414.527 107.314 414.589C107.066 414.941 106.954 415.388 107.037 415.845C107.162 416.538 107.701 417.052 108.352 417.181L108.678 416.71C109.107 416.09 108.953 415.239 108.333 414.81ZM103.653 412.015C103.402 412.368 103.287 412.818 103.371 413.277C103.494 413.957 104.015 414.465 104.65 414.606L104.971 414.143C105.4 413.523 105.246 412.672 104.625 412.243C104.33 412.038 103.982 411.967 103.653 412.015Z" fill="white"/>
<path d="M108.712 414.261C107.791 413.623 106.522 413.854 105.884 414.775L100.546 422.482C100.477 422.583 100.338 422.608 100.238 422.538C100.172 422.493 100.152 422.429 100.146 422.395C100.139 422.362 100.136 422.295 100.182 422.23L105.519 414.523C106.157 413.601 105.927 412.332 105.005 411.694C104.559 411.385 104.019 411.268 103.485 411.365C102.95 411.462 102.486 411.761 102.177 412.208L96.839 419.915C96.7935 419.98 96.7301 420 96.6964 420.006C96.6626 420.013 96.5962 420.016 96.5304 419.97C96.4647 419.925 96.4446 419.862 96.4385 419.828C96.4324 419.794 96.4289 419.728 96.4744 419.662L101.812 411.955C102.45 411.034 102.22 409.765 101.298 409.126C100.703 408.714 99.963 408.666 99.3412 408.931C99.3253 408.815 99.3078 408.698 99.2868 408.582C98.5021 404.262 94.349 401.386 90.0289 402.171C88.4485 402.458 87.0279 403.193 85.8915 404.306C84.436 403.663 82.8477 403.475 81.2674 403.762C79.6869 404.049 78.2664 404.784 77.1299 405.898C75.6744 405.255 74.0861 405.066 72.5057 405.353C68.1855 406.138 65.3092 410.291 66.0939 414.611C66.7396 418.166 69.6662 420.743 73.0899 421.107L76.3566 439.093C76.5347 440.073 77.4774 440.726 78.4579 440.548L82.1667 439.875L80.2893 442.585C79.4324 443.823 79.7419 445.527 80.9794 446.384C81.5981 446.813 82.3337 446.95 83.0215 446.825C83.7094 446.7 84.3497 446.313 84.7783 445.694L89.7646 438.495L96.8332 437.211C97.8138 437.033 98.4667 436.09 98.2886 435.109L97.4269 430.366C97.8703 430.466 98.3336 430.478 98.7944 430.394C99.6927 430.231 100.474 429.728 100.993 428.977L109.226 417.09C109.864 416.169 109.634 414.9 108.712 414.261ZM74.026 419.815C73.9156 419.817 73.805 419.816 73.6943 419.812C70.6484 419.704 67.9731 417.491 67.4067 414.372C66.7535 410.776 69.1478 407.319 72.7441 406.666C74.1975 406.402 75.6589 406.621 76.9703 407.3C77.2396 407.439 77.5692 407.38 77.7723 407.154C78.7612 406.058 80.0522 405.339 81.5057 405.075C82.959 404.811 84.4204 405.03 85.7318 405.709C86.0011 405.848 86.3307 405.788 86.5338 405.563C87.5227 404.466 88.8137 403.747 90.2671 403.483C93.8633 402.83 97.3205 405.225 97.9737 408.821C98.0563 409.276 98.0907 409.741 98.0767 410.207L93.9701 416.136C93.5388 416.313 93.091 416.445 92.6362 416.527C91.1828 416.791 89.7214 416.572 88.4101 415.893C88.1407 415.754 87.8112 415.814 87.6081 416.039C86.6191 417.136 85.3282 417.855 83.8748 418.119C82.4213 418.383 80.96 418.164 79.6486 417.485C79.3792 417.345 79.0496 417.405 78.8466 417.63C77.8576 418.727 76.5666 419.446 75.1133 419.71C74.9969 419.731 74.8797 419.749 74.7619 419.764C74.7532 419.765 74.7445 419.766 74.7358 419.767C74.6253 419.78 74.5143 419.791 74.4028 419.799C74.3992 419.8 74.3955 419.8 74.3918 419.8C74.2764 419.808 74.1606 419.813 74.0446 419.815C74.0384 419.815 74.0323 419.815 74.026 419.815ZM78.2195 439.235C77.9628 439.282 77.716 439.111 77.6694 438.854L74.4508 421.134C74.5976 421.124 74.7448 421.11 74.8923 421.092C74.8977 421.091 74.903 421.091 74.9082 421.09C74.9726 421.082 75.037 421.073 75.1013 421.064C75.1122 421.062 75.1232 421.061 75.1341 421.059C75.2066 421.048 75.2791 421.036 75.3516 421.023C76.9321 420.736 78.3526 420.001 79.489 418.887C80.9446 419.53 82.5328 419.718 84.1133 419.431C85.6937 419.144 87.1143 418.409 88.2507 417.296C89.677 417.926 91.2306 418.118 92.7796 417.856L90.2367 421.527C89.7169 422.278 89.5205 423.186 89.6837 424.084C89.8468 424.982 90.35 425.763 91.1005 426.283C91.2793 426.407 91.324 426.653 91.2001 426.832L83.2412 438.323L78.2195 439.235ZM96.9758 435.348C97.0224 435.605 96.8515 435.851 96.5948 435.898L90.839 436.943L95.6889 429.941C95.7551 429.845 95.8565 429.789 95.9637 429.776L96.9758 435.348ZM108.129 416.331L99.8966 428.217C99.2424 429.162 97.942 429.398 96.9974 428.744C96.2138 428.201 95.1348 428.397 94.5921 429.181L83.6814 444.934C83.2432 445.567 82.3719 445.726 81.7392 445.287C81.1064 444.849 80.9482 443.978 81.3864 443.345L92.297 427.592C92.8398 426.808 92.6438 425.729 91.8602 425.186C90.9158 424.532 90.6796 423.232 91.3336 422.287L99.5664 410.4C99.6761 410.242 99.84 410.143 100.016 410.111C100.192 410.079 100.38 410.114 100.538 410.224C100.855 410.443 100.934 410.879 100.715 411.195L95.3774 418.902C95.1408 419.244 95.0513 419.657 95.1256 420.066C95.1999 420.475 95.429 420.831 95.7705 421.067C96.1122 421.304 96.5257 421.394 96.9347 421.319C97.3437 421.245 97.6993 421.016 97.9358 420.674L103.273 412.967C103.38 412.814 103.539 412.711 103.723 412.678C103.907 412.644 104.092 412.685 104.245 412.791C104.562 413.01 104.641 413.446 104.422 413.763L99.0844 421.47C98.8478 421.812 98.7584 422.225 98.8326 422.634C98.9069 423.043 99.136 423.398 99.4777 423.635C100.183 424.124 101.154 423.947 101.643 423.242L106.98 415.535C107.2 415.218 107.636 415.139 107.953 415.358C108.269 415.578 108.349 416.014 108.129 416.331Z" fill="black"/>
<path opacity="0.2" d="M83.5715 443.47C83.4035 443.501 83.2238 443.467 83.0724 443.362C82.7695 443.153 82.694 442.737 82.9038 442.434L85.9646 438.015C86.1744 437.712 86.5901 437.636 86.8928 437.846C87.1957 438.056 87.2712 438.471 87.0615 438.774L84.0007 443.194C83.8959 443.345 83.7395 443.44 83.5715 443.47Z" fill="black"/>
</g>
<g filter="url(#filter1_d_40_823)">
<rect width="62.6998" height="62.7724" rx="21" transform="matrix(-0.970196 -0.24232 0.241723 -0.970345 351.239 164.469)" fill="#282626"/>
</g>
<g clip-path="url(#clip2_40_823)">
<path d="M345.938 134.077L309.342 124.937L309.67 123.683C310.934 118.853 313.994 114.789 318.285 112.24C322.58 109.689 327.614 108.95 332.46 110.161C337.305 111.371 341.403 114.39 343.998 118.662C346.591 122.931 347.386 127.958 346.237 132.816L345.938 134.077Z" fill="#DFCCBE"/>
<path d="M343.019 135.888L340.768 144.922L330.084 142.253L330.855 139.16C330.951 138.773 330.986 138.258 330.397 137.704C330 137.333 329.535 137.143 329.53 137.142L329.484 137.123L326.098 135.698L316.025 131.455L311.068 127.216L312.121 122.99L339.287 129.775L343.019 135.888Z" fill="#FFDBA8"/>
<path d="M343.019 135.888L340.768 144.922L330.084 142.253L330.855 139.16C330.951 138.773 330.986 138.258 330.396 137.704C330 137.332 329.535 137.143 329.53 137.142L329.483 137.123L326.098 135.698L328.259 127.021L339.287 129.775L343.019 135.888Z" fill="#FFC172"/>
<path d="M345.938 134.077L327.64 129.507L332.459 110.161C337.305 111.371 341.403 114.39 343.998 118.662C346.591 122.931 347.386 127.958 346.237 132.816L345.938 134.077Z" fill="#C9AD91"/>
<path d="M343.295 142.864L329.24 139.353L327.168 147.674L341.222 151.184L343.295 142.864Z" fill="#A7AFF3"/>
<path d="M343.295 142.863L336.268 141.108L334.195 149.429L341.222 151.184L343.295 142.863Z" fill="#7885EB"/>
<path d="M332.611 143.852L330.956 143.438L330.543 145.096L332.198 145.509L332.611 143.852Z" fill="white"/>
<path d="M348.536 132.085L307.982 121.957L307.363 124.443L347.917 134.572L348.536 132.085Z" fill="#867B6E"/>
<path d="M335.28 109.135C334.948 110.47 333.596 111.283 332.263 110.95C330.93 110.617 330.118 109.263 330.45 107.928C330.783 106.592 332.134 105.78 333.468 106.113C334.801 106.446 335.613 107.799 335.28 109.135Z" fill="#867B6E"/>
<path d="M332.263 110.95L333.468 106.113C334.801 106.446 335.613 107.799 335.28 109.135C334.948 110.47 333.596 111.283 332.263 110.95Z" fill="#766957"/>
<path d="M348.537 132.085L328.26 127.021L327.64 129.507L347.917 134.572L348.537 132.085Z" fill="#766957"/>
</g>
<g filter="url(#filter2_d_40_823)">
<rect x="97.3669" y="113" width="55.5872" height="55.5872" rx="23" transform="rotate(5.54041 97.3669 113)" fill="#282626"/>
</g>
<g clip-path="url(#clip3_40_823)">
<path d="M138.927 147.051L105.45 143.804C106.197 136.1 112.213 130.158 119.661 129.075C120.216 128.994 120.777 128.94 121.346 128.915L126.191 129.385C134.175 131.323 139.73 138.775 138.927 147.051Z" fill="#FF6F52"/>
<path d="M128.454 146.035L112.616 144.499C115.652 144.794 118.348 142.614 118.637 139.631L119.661 129.075C120.215 128.994 120.777 128.94 121.346 128.915L124.529 129.224C124.53 129.261 124.529 129.3 124.525 129.339L123.481 140.101C123.192 143.084 125.418 145.741 128.454 146.035Z" fill="#E25749"/>
<path d="M125.114 129.28L121.346 128.915C113.137 129.282 106.253 135.528 105.451 143.804L109.219 144.17C110.021 135.893 116.905 129.648 125.114 129.28Z" fill="#E25749"/>
<path d="M125.135 140.261L126.179 129.5C126.232 128.95 125.822 128.461 125.263 128.407L122.443 128.133C121.884 128.079 121.388 128.48 121.335 129.03L120.291 139.791C120.002 142.774 117.306 144.954 114.27 144.66L104.576 143.719L104.111 148.513L139.337 151.93L139.802 147.136L130.108 146.196C127.072 145.901 124.846 143.244 125.135 140.261Z" fill="#FF6F52"/>
<path d="M110.805 144.324L104.576 143.72L104.111 148.513L110.34 149.117L110.805 144.324Z" fill="#E25749"/>
<path d="M132.067 151.225C131.838 152.776 128.903 155.638 128.903 155.638C124.118 155.648 119.341 155.233 114.632 154.396C114.11 154.304 113.59 154.206 113.071 154.103C113.071 154.103 110.741 150.729 110.815 149.163L132.067 151.225Z" fill="#FF6F52"/>
<path d="M114.632 154.396C114.11 154.304 113.59 154.206 113.071 154.103C113.071 154.103 110.741 150.729 110.815 149.163L114.447 149.516C113.628 151.178 114.632 154.396 114.632 154.396Z" fill="#E25749"/>
<path d="M139.818 146.523L139.551 146.497C139.788 142.577 138.651 138.687 136.317 135.482C133.962 132.248 130.549 129.915 126.674 128.882C126.471 128.301 125.94 127.857 125.279 127.793L122.459 127.52C121.798 127.456 121.191 127.789 120.881 128.321C119.798 128.394 118.722 128.566 117.675 128.836C117.343 128.921 117.144 129.256 117.233 129.583C117.301 129.838 117.524 130.013 117.776 130.038C117.847 130.045 117.921 130.04 117.995 130.021C118.851 129.8 119.729 129.651 120.613 129.572L119.628 139.727C119.371 142.369 116.975 144.307 114.286 144.046L106.1 143.252C106.851 137.755 110.476 133.022 115.681 130.806C115.997 130.672 116.141 130.311 116.003 130.001C115.865 129.69 115.498 129.547 115.183 129.682C109.563 132.075 105.652 137.192 104.858 143.132L104.592 143.106C104.25 143.073 103.945 143.319 103.913 143.655L103.448 148.448C103.415 148.785 103.666 149.085 104.009 149.118L110.196 149.718C110.511 151.498 112.289 154.117 112.513 154.442C112.605 154.575 112.746 154.668 112.907 154.699C115.528 155.218 118.181 155.608 120.847 155.867C123.513 156.125 126.191 156.253 128.863 156.247C129.027 156.247 129.184 156.183 129.3 156.07C129.582 155.795 131.83 153.566 132.481 151.88L139.234 152.535C139.577 152.568 139.881 152.322 139.914 151.986L140.378 147.192C140.411 146.856 140.16 146.556 139.818 146.523ZM138.732 151.256L130.352 150.443C130.01 150.41 129.706 150.656 129.673 150.992C129.64 151.329 129.891 151.629 130.234 151.662L131.183 151.754C130.681 152.746 129.475 154.14 128.599 155.022C123.508 155.016 118.398 154.521 113.402 153.548C112.711 152.515 111.795 150.915 111.493 149.844L127.991 151.444C128.334 151.477 128.638 151.231 128.67 150.895C128.703 150.558 128.452 150.259 128.109 150.225L104.747 147.959L105.094 144.385L114.168 145.265C117.541 145.592 120.546 143.162 120.868 139.847L121.912 129.086C121.932 128.873 122.125 128.718 122.341 128.739L125.161 129.012C125.377 129.033 125.536 129.223 125.515 129.435L125.185 132.839C125.153 133.175 125.404 133.475 125.746 133.508C126.089 133.542 126.393 133.296 126.426 132.959L126.697 130.161C130.151 131.163 133.188 133.286 135.304 136.192C137.463 139.157 138.519 142.751 138.31 146.376L130.124 145.582C127.435 145.321 125.456 142.959 125.712 140.317L126.212 135.163C126.244 134.826 125.993 134.527 125.651 134.493C125.308 134.46 125.004 134.706 124.972 135.043L124.472 140.196C124.15 143.511 126.633 146.474 130.005 146.801L139.079 147.681L138.733 151.256L138.732 151.256Z" fill="black"/>
<path d="M136.075 143.241C136.418 143.274 136.722 143.028 136.755 142.691C136.787 142.355 136.536 142.055 136.194 142.022C135.851 141.988 135.547 142.234 135.514 142.571C135.482 142.908 135.733 143.207 136.075 143.241Z" fill="black"/>
<path d="M135.867 145.388C136.209 145.422 136.513 145.176 136.546 144.839C136.579 144.503 136.328 144.203 135.985 144.17C135.643 144.136 135.339 144.382 135.306 144.719C135.273 145.055 135.524 145.355 135.867 145.388Z" fill="black"/>
<path d="M108.895 140.604C109.237 140.637 109.541 140.391 109.574 140.055C109.607 139.718 109.355 139.418 109.013 139.385C108.67 139.352 108.366 139.598 108.334 139.934C108.301 140.271 108.552 140.571 108.895 140.604Z" fill="black"/>
<path d="M108.686 142.752C109.029 142.785 109.333 142.539 109.365 142.203C109.398 141.866 109.147 141.566 108.804 141.533C108.462 141.5 108.158 141.746 108.125 142.082C108.093 142.419 108.344 142.719 108.686 142.752Z" fill="black"/>
</g>
</g>
<defs>
<filter id="filter0_d_40_823" x="48.7358" y="386.736" width="75.5283" height="75.5282" filterUnits="userSpaceOnUse" color-interpolation-filters="sRGB">
<feFlood flood-opacity="0" result="BackgroundImageFix"/>
<feColorMatrix in="SourceAlpha" type="matrix" values="0 0 0 0 0 0 0 0 0 0 0 0 0 0 0 0 0 0 127 0" result="hardAlpha"/>
<feOffset dy="2"/>
<feGaussianBlur stdDeviation="3"/>
<feComposite in2="hardAlpha" operator="out"/>
<feColorMatrix type="matrix" values="0 0 0 0 0 0 0 0 0 0 0 0 0 0 0 0 0 0 0.18 0"/>
<feBlend mode="normal" in2="BackgroundImageFix" result="effect1_dropShadow_40_823"/>
<feBlend mode="normal" in="SourceGraphic" in2="effect1_dropShadow_40_823" result="shape"/>
</filter>
<filter id="filter1_d_40_823" x="288.856" y="88.8226" width="79.1079" height="79.1884" filterUnits="userSpaceOnUse" color-interpolation-filters="sRGB">
<feFlood flood-opacity="0" result="BackgroundImageFix"/>
<feColorMatrix in="SourceAlpha" type="matrix" values="0 0 0 0 0 0 0 0 0 0 0 0 0 0 0 0 0 0 127 0" result="hardAlpha"/>
<feOffset dy="2"/>
<feGaussianBlur stdDeviation="3"/>
<feComposite in2="hardAlpha" operator="out"/>
<feColorMatrix type="matrix" values="0 0 0 0 0 0 0 0 0 0 0 0 0 0 0 0 0 0 0.18 0"/>
<feBlend mode="normal" in2="BackgroundImageFix" result="effect1_dropShadow_40_823"/>
<feBlend mode="normal" in="SourceGraphic" in2="effect1_dropShadow_40_823" result="shape"/>
</filter>
<filter id="filter2_d_40_823" x="88.1116" y="111.112" width="68.4714" height="68.4713" filterUnits="userSpaceOnUse" color-interpolation-filters="sRGB">
<feFlood flood-opacity="0" result="BackgroundImageFix"/>
<feColorMatrix in="SourceAlpha" type="matrix" values="0 0 0 0 0 0 0 0 0 0 0 0 0 0 0 0 0 0 127 0" result="hardAlpha"/>
<feOffset dy="2"/>
<feGaussianBlur stdDeviation="3"/>
<feComposite in2="hardAlpha" operator="out"/>
<feColorMatrix type="matrix" values="0 0 0 0 0 0 0 0 0 0 0 0 0 0 0 0 0 0 0.18 0"/>
<feBlend mode="normal" in2="BackgroundImageFix" result="effect1_dropShadow_40_823"/>
<feBlend mode="normal" in="SourceGraphic" in2="effect1_dropShadow_40_823" result="shape"/>
</filter>
<clipPath id="clip0_40_823">
<rect width="432" height="568" fill="white"/>
</clipPath>
<clipPath id="clip1_40_823">
<rect width="42.6831" height="42.6832" fill="white" transform="translate(64.6248 406.785) rotate(-10.2942)"/>
</clipPath>
<clipPath id="clip2_40_823">
<rect width="41.7999" height="41.8483" fill="white" transform="matrix(0.970196 0.24232 -0.241723 0.970345 313.191 101.049)"/>
</clipPath>
<clipPath id="clip3_40_823">
<rect width="36.637" height="36.0053" fill="white" transform="translate(106.005 122.088) rotate(5.54041)"/>
</clipPath>
</defs>
</svg>
