<svg width="144" height="128" viewBox="0 0 144 128" fill="none" xmlns="http://www.w3.org/2000/svg">
<path d="M66.7808 15.3516L71.9535 20.68L77.1262 15.3591C80.5178 11.8397 84.5517 9.044 88.9964 7.13257C93.4411 5.22113 98.2091 4.23158 103.027 4.22073C107.844 4.20988 112.616 5.17794 117.069 7.06933C121.522 8.96073 125.568 11.7382 128.974 15.2423C132.381 18.7464 135.081 22.9081 136.92 27.4885C138.758 32.0689 139.699 36.9778 139.689 41.9334C139.678 46.8889 138.716 51.7935 136.858 56.3656C135 60.9377 132.282 65.0872 128.861 68.5759L77.1335 121.793C76.454 122.492 75.6471 123.048 74.7589 123.426C73.8707 123.805 72.9187 124 71.9572 124C70.9957 124 70.0436 123.805 69.1554 123.426C68.2672 123.048 67.4603 122.492 66.7808 121.793L15.0464 68.5759C11.5785 65.0984 8.81635 60.9472 6.92024 56.3631C5.02413 51.7789 4.03178 46.8531 4.00075 41.8714C3.96972 36.8897 4.90063 31.9512 6.73948 27.3425C8.57833 22.7338 11.2885 18.5465 14.7128 15.0235C18.1371 11.5006 22.2074 8.71219 26.6875 6.82C31.1676 4.92781 35.9684 3.96952 40.8113 4.00074C45.6543 4.03195 50.443 5.05204 54.8997 7.00184C59.3564 8.95163 63.3924 11.7923 66.7735 15.3591L66.7808 15.3516Z" fill="url(#paint0_linear_24_58)"/>
<path d="M101.961 76.1429V76.6429H102.461H129.624C130.934 76.6429 132.19 77.1563 133.114 78.0679C134.038 78.9794 134.556 80.2141 134.556 81.5C134.556 82.7859 134.038 84.0206 133.114 84.9321C132.19 85.8437 130.934 86.3571 129.624 86.3571H102.461H101.961V86.8571V113.643C101.961 114.929 101.443 116.163 100.519 117.075C99.594 117.987 98.3386 118.5 97.0282 118.5C95.7177 118.5 94.4623 117.987 93.5378 117.075C92.6135 116.163 92.0956 114.929 92.0956 113.643V86.8571V86.3571H91.5956H64.4326C63.1221 86.3571 61.8668 85.8437 60.9422 84.9321C60.018 84.0206 59.5 82.7859 59.5 81.5C59.5 80.2141 60.018 78.9794 60.9422 78.0679C61.8668 77.1563 63.1222 76.6429 64.4326 76.6429H91.5956H92.0956V76.1429V49.3571C92.0956 48.0712 92.6135 46.8365 93.5378 45.9251C94.4623 45.0134 95.7177 44.5 97.0282 44.5C98.3386 44.5 99.594 45.0134 100.519 45.9251C101.443 46.8365 101.961 48.0712 101.961 49.3571V76.1429Z" fill="white" stroke="black"/>
<defs>
<linearGradient id="paint0_linear_24_58" x1="9" y1="73" x2="129" y2="193.5" gradientUnits="userSpaceOnUse">
<stop stop-color="#FF4040"/>
<stop offset="1" stop-color="#F4732A" stop-opacity="0.98"/>
</linearGradient>
</defs>
</svg>
