<svg width="315" height="315" viewBox="0 0 315 315" fill="none" xmlns="http://www.w3.org/2000/svg">
<path d="M158 7C75.5 7 8 74.5 8 157C8 239.5 75.5 307 158 307C240.5 307 308 239.5 308 157C308 74.5 240.5 7 158 7ZM158 44.5C220.25 44.5 270.5 94.75 270.5 157C270.5 219.25 220.25 269.5 158 269.5C95.75 269.5 45.5 219.25 45.5 157C45.5 94.75 95.75 44.5 158 44.5ZM233 82L120.5 119.5L83 232L195.5 194.5L233 82ZM158 138.25C168.5 138.25 176.75 146.5 176.75 157C176.75 167.5 168.5 175.75 158 175.75C147.5 175.75 139.25 167.5 139.25 157C139.25 146.5 147.5 138.25 158 138.25Z" fill="url(#paint0_linear_32_2)"/>
<defs>
<linearGradient id="paint0_linear_32_2" x1="77.5584" y1="-259.038" x2="521.392" y2="88.3803" gradientUnits="userSpaceOnUse">
<stop stop-color="#EC74F2"/>
<stop offset="1" stop-color="#936CF5"/>
</linearGradient>
</defs>
</svg>
